<svg width="2748" height="2527" viewBox="0 0 2748 2527" fill="none" xmlns="http://www.w3.org/2000/svg">
<path d="M1762.36 1036.67L1220.82 724.01C1207.54 715.855 1192.34 711.341 1176.76 710.92C1166.3 710.731 1155.98 713.312 1146.84 718.4C1127.02 730.068 1023.72 789.683 1015.35 794.395C994.853 805.764 982.361 829.924 982.361 861.714C982.361 917.962 1020.51 984.009 1069.2 1012.13L1610.52 1324.64C1623.8 1332.8 1639 1337.32 1654.58 1337.73C1664.54 1337.83 1674.37 1335.41 1683.15 1330.7C1689.66 1327.11 1806.87 1258.89 1815.17 1254.41C1822.08 1250.71 1828.14 1245.62 1832.97 1239.45C1844.07 1224.3 1849.71 1205.85 1848.98 1187.09C1849.13 1130.91 1811.05 1064.79 1762.36 1036.67Z" fill="#37474F"/>
<path d="M1694.66 997.475L1542.97 1085.06L1454.64 1136.08L1493.23 1158.52L1581.57 1107.65L1733.34 1019.91L1694.66 997.475ZM1771.03 1042.35L1620.24 1129.79L1531.9 1180.81L1570.57 1203.25L1652.03 1156.2L1801.25 1069.95C1792.32 1059.65 1782.17 1050.45 1771.03 1042.58V1042.35ZM1824.14 1101.22L1674.54 1187.24L1609.17 1225.16L1647.84 1247.6L1690.7 1223.07L1840.3 1136.82C1836.05 1124.55 1830.64 1112.7 1824.14 1101.44V1101.22ZM1617.25 952.969L1465.71 1040.48L1377.37 1091.5L1416.04 1113.94L1504.38 1062.92L1655.92 975.334L1617.25 952.969ZM1848.53 1176.62L1697.58 1263.83L1686.74 1270.12L1601.24 1319.41L1610.82 1324.72C1621.88 1331.5 1634.28 1335.81 1647.17 1337.36L1841.64 1225.16C1846.8 1213.14 1849.34 1200.17 1849.12 1187.09C1849.12 1183.65 1848.67 1180.28 1848.45 1176.62H1848.53ZM1462.71 863.66L1311.17 951.249L1222.84 1002.26L1261.43 1024.7L1349.77 973.689L1501.31 886.174L1462.71 863.66ZM1539.98 908.539L1388.22 996.128L1299.95 1047.14L1338.55 1069.58L1426.89 1018.57L1578.58 930.979L1539.98 908.539ZM1177.13 711.37C1166.68 711.206 1156.36 713.785 1147.21 718.85C1127.24 730.668 1024.1 790.283 1015.72 794.845C1004.26 801.496 995.305 811.716 990.212 823.942L1184.69 711.744C1182 711.37 1179.53 710.996 1177.06 710.996L1177.13 711.37ZM1230.61 729.995L1078.7 817.21L1067.7 823.493C1067.91 837.298 1070.2 850.992 1074.51 864.109L1117.37 839.35L1268.91 751.761L1230.61 729.995ZM1385.37 818.93L1233.61 906.52L1145.27 957.532L1183.94 979.972L1272.2 928.959L1423.97 841.445L1385.37 818.93ZM1307.88 774.051L1156.41 861.64L1090.74 899.489C1097.09 910.815 1104.75 921.358 1113.55 930.904L1195.01 883.93L1346.78 796.341L1307.88 774.051Z" fill="#263238"/>
<path d="M1620.24 1129.72L1078.7 817.215C1075.46 815.476 1072.11 813.952 1068.68 812.652C1068.09 816.265 1067.74 819.913 1067.63 823.573C1067.63 872.865 1102.26 932.854 1144.97 957.537L1686.59 1270.05C1689.83 1271.79 1693.18 1273.34 1696.61 1274.68C1697.17 1271.04 1697.5 1267.37 1697.58 1263.69C1697.58 1214.4 1662.95 1154.41 1620.24 1129.72Z" fill="#263238"/>
<path d="M1713.44 1254.56C1713.44 1205.19 1678.81 1145.28 1636.1 1120.6C1614.93 1108.4 1595.86 1107.36 1581.94 1115.28C1579.18 1116.86 1568.26 1122.76 1565.64 1124.34C1551.58 1132.34 1543.2 1149.77 1543.2 1174.38C1543.2 1223.67 1577.76 1283.66 1620.47 1308.34C1641.56 1320.46 1660.56 1321.88 1674.47 1314.1C1677.31 1312.53 1688.46 1305.65 1691.3 1304C1704.84 1295.92 1713.44 1278.94 1713.44 1254.56Z" fill="#02D767"/>
<path opacity="0.2" d="M1713.44 1254.56C1713.44 1205.19 1678.81 1145.28 1636.1 1120.6C1614.93 1108.4 1595.86 1107.36 1581.94 1115.28C1579.18 1116.86 1568.26 1122.76 1565.64 1124.34C1551.58 1132.34 1543.2 1149.77 1543.2 1174.38C1543.2 1223.67 1577.76 1283.66 1620.47 1308.34C1641.56 1320.46 1660.56 1321.88 1674.47 1314.1C1677.31 1312.53 1688.46 1305.65 1691.3 1304C1704.84 1295.92 1713.44 1278.94 1713.44 1254.56Z" fill="black"/>
<path d="M1620.24 1129.72C1662.95 1154.41 1697.58 1214.32 1697.58 1263.69C1697.58 1313.05 1662.95 1332.95 1620.24 1308.57C1577.53 1284.18 1542.97 1223.89 1542.97 1174.6C1542.97 1125.31 1577.53 1105.04 1620.24 1129.72Z" fill="#02D767"/>
<path opacity="0.2" d="M1620.24 1147.6C1654.42 1167.34 1682.1 1215.29 1682.1 1254.71C1682.1 1294.13 1654.42 1310.21 1620.24 1290.46C1586.06 1270.72 1558.38 1222.77 1558.38 1183.28C1558.38 1143.78 1586.13 1127.93 1620.24 1147.6Z" fill="black"/>
<path opacity="0.2" d="M1620.24 1147.6C1615.01 1144.03 1609.12 1141.53 1602.92 1140.25C1596.72 1138.97 1590.33 1138.92 1584.11 1140.12C1576.62 1149.71 1572.87 1161.7 1573.57 1173.85C1573.57 1213.35 1601.24 1261.29 1635.43 1281.04C1646.03 1288.22 1659.05 1290.91 1671.63 1288.52C1679.11 1278.9 1682.83 1266.88 1682.1 1254.71C1682.1 1215.29 1654.65 1167.35 1620.24 1147.6Z" fill="black"/>
<path d="M1634.23 1184.18C1631.91 1182.49 1629.18 1181.46 1626.33 1181.18C1623.47 1180.91 1620.6 1181.4 1618 1182.61C1615.53 1183.95 1606.1 1189.34 1603.64 1190.84C1601.33 1192.54 1599.5 1194.81 1598.35 1197.44C1597.19 1200.06 1596.75 1202.94 1597.05 1205.8C1597.49 1213.84 1599.82 1221.67 1603.85 1228.65C1607.88 1235.63 1613.49 1241.56 1620.24 1245.96C1622.58 1247.66 1625.34 1248.7 1628.22 1248.98C1631.1 1249.25 1634 1248.76 1636.62 1247.53C1639.02 1246.11 1648.52 1240.8 1650.98 1239.23C1653.27 1237.52 1655.07 1235.24 1656.2 1232.61C1657.33 1229.99 1657.75 1227.11 1657.42 1224.27C1656.96 1216.24 1654.62 1208.43 1650.6 1201.47C1646.57 1194.5 1640.96 1188.58 1634.23 1184.18Z" fill="#02D767"/>
<path opacity="0.2" d="M1634.23 1184.18C1631.91 1182.49 1629.18 1181.46 1626.33 1181.18C1623.47 1180.91 1620.6 1181.4 1618 1182.61C1615.53 1183.95 1606.1 1189.34 1603.64 1190.84C1601.33 1192.54 1599.5 1194.81 1598.35 1197.44C1597.19 1200.06 1596.75 1202.94 1597.05 1205.8C1597.49 1213.84 1599.82 1221.67 1603.85 1228.65C1607.88 1235.63 1613.49 1241.56 1620.24 1245.96C1622.58 1247.66 1625.34 1248.7 1628.22 1248.98C1631.1 1249.25 1634 1248.76 1636.62 1247.53C1639.02 1246.11 1648.52 1240.8 1650.98 1239.23C1653.27 1237.52 1655.07 1235.24 1656.2 1232.61C1657.33 1229.99 1657.75 1227.11 1657.42 1224.27C1656.96 1216.24 1654.62 1208.43 1650.6 1201.47C1646.57 1194.5 1640.96 1188.58 1634.23 1184.18Z" fill="black"/>
<path d="M1620.24 1192.26C1627.01 1196.64 1632.65 1202.57 1636.69 1209.55C1640.73 1216.53 1643.07 1224.37 1643.5 1232.42C1643.5 1247.38 1633.11 1253.22 1620.24 1245.81C1613.49 1241.41 1607.88 1235.48 1603.85 1228.5C1599.82 1221.52 1597.49 1213.69 1597.05 1205.65C1597.05 1190.84 1607.45 1184.85 1620.24 1192.26Z" fill="#02D767"/>
<path d="M1172.12 942.053C1172.12 892.686 1137.49 832.772 1094.78 808.089C1073.61 795.822 1054.54 794.85 1040.63 802.778C1037.86 804.349 1027.01 810.258 1024.32 811.829C1010.33 819.832 1001.88 837.26 1001.88 861.869C1001.88 911.161 1036.51 971.15 1079.22 995.758C1100.24 1007.95 1119.24 1009.37 1133.15 1001.59C1136.07 1000.02 1147.22 993.14 1149.98 991.495C1163.52 983.417 1172.12 966.437 1172.12 942.053Z" fill="#02D767"/>
<path opacity="0.2" d="M1172.12 942.053C1172.12 892.686 1137.49 832.772 1094.78 808.089C1073.61 795.822 1054.54 794.85 1040.63 802.778C1037.86 804.349 1027.01 810.258 1024.32 811.829C1010.33 819.832 1001.88 837.26 1001.88 861.869C1001.88 911.161 1036.51 971.15 1079.22 995.758C1100.24 1007.95 1119.24 1009.37 1133.15 1001.59C1136.07 1000.02 1147.22 993.14 1149.98 991.495C1163.52 983.417 1172.12 966.437 1172.12 942.053Z" fill="black"/>
<path d="M1078.7 817.212C1121.41 841.896 1156.04 901.809 1156.04 951.176C1156.04 1000.54 1121.41 1020.44 1078.7 996.055C1035.99 971.671 1001.66 911.009 1001.66 861.867C1001.66 812.724 1036.29 792.529 1078.7 817.212Z" fill="#02D767"/>
<path opacity="0.2" d="M1078.7 835.089C1112.81 854.761 1140.56 902.782 1140.56 942.201C1140.56 981.62 1113.11 997.627 1078.7 978.329C1044.29 959.031 1016.84 911.01 1016.84 871.142C1016.84 831.275 1044.82 815.343 1078.7 835.089Z" fill="black"/>
<path opacity="0.2" d="M1078.7 835.087C1073.45 831.521 1067.56 829.026 1061.34 827.742C1055.13 826.459 1048.73 826.413 1042.5 827.607C1035 837.198 1031.25 849.189 1031.95 861.341C1031.95 900.835 1059.63 948.781 1093.81 968.528C1104.42 975.698 1117.43 978.386 1130.01 976.007C1137.52 966.394 1141.27 954.375 1140.56 942.198C1140.86 902.78 1113.11 854.759 1078.7 835.087Z" fill="black"/>
<path d="M1092.91 871.668C1090.59 869.983 1087.86 868.949 1085.01 868.672C1082.16 868.396 1079.28 868.888 1076.68 870.097C1074.29 871.443 1064.79 876.829 1062.39 878.325C1060.07 880.008 1058.23 882.281 1057.07 884.911C1055.91 887.54 1055.48 890.431 1055.81 893.285C1056.21 901.305 1058.49 909.119 1062.47 916.096C1066.44 923.073 1072 929.018 1078.7 933.451C1081.03 935.136 1083.77 936.169 1086.64 936.445C1089.51 936.721 1092.39 936.23 1095.01 935.022C1097.4 933.601 1106.9 928.29 1109.37 926.72C1111.66 925.014 1113.47 922.732 1114.6 920.105C1115.72 917.478 1116.14 914.599 1115.8 911.76C1115.39 903.752 1113.1 895.953 1109.13 888.99C1105.15 882.027 1099.6 876.093 1092.91 871.668V871.668Z" fill="#02D767"/>
<path opacity="0.2" d="M1092.91 871.668C1090.59 869.983 1087.86 868.949 1085.01 868.672C1082.16 868.396 1079.28 868.888 1076.68 870.097C1074.29 871.443 1064.79 876.829 1062.39 878.325C1060.07 880.008 1058.23 882.281 1057.07 884.911C1055.91 887.54 1055.48 890.431 1055.81 893.285C1056.21 901.305 1058.49 909.119 1062.47 916.096C1066.44 923.073 1072 929.018 1078.7 933.451C1081.03 935.136 1083.77 936.169 1086.64 936.445C1089.51 936.721 1092.39 936.23 1095.01 935.022C1097.4 933.601 1106.9 928.29 1109.37 926.72C1111.66 925.014 1113.47 922.732 1114.6 920.105C1115.72 917.478 1116.14 914.599 1115.8 911.76C1115.39 903.752 1113.1 895.953 1109.13 888.99C1105.15 882.027 1099.6 876.093 1092.91 871.668V871.668Z" fill="black"/>
<path d="M1078.7 879.74C1085.45 884.145 1091.06 890.076 1095.09 897.054C1099.12 904.032 1101.45 911.861 1101.89 919.907C1101.89 934.867 1091.49 940.701 1078.7 933.296C1071.95 928.896 1066.33 922.965 1062.3 915.986C1058.27 909.007 1055.95 901.176 1055.51 893.129C1055.81 878.319 1066.13 872.335 1078.7 879.74Z" fill="#02D767"/>
<path d="M1629.74 1112.97L1088.5 800.458C1075.18 792.331 1059.96 787.843 1044.37 787.443C1007.42 787.443 982.658 817.363 982.658 861.718C982.658 917.892 1020.73 983.939 1069.5 1012.14L1610.74 1324.5C1624.02 1332.73 1639.25 1337.28 1654.87 1337.66C1663.63 1337.8 1672.3 1335.93 1680.23 1332.2C1688.15 1328.47 1695.11 1322.96 1700.57 1316.12C1711.69 1300.84 1717.33 1282.26 1716.58 1263.39C1716.58 1207.44 1678.51 1141.39 1629.74 1112.97ZM1620.24 1308.12L1078.7 995.757C1035.91 971.223 1001.43 911.235 1001.43 861.943C1001.43 812.651 1035.91 792.679 1078.7 817.064L1619.94 1129.65C1662.73 1154.18 1697.21 1214.17 1697.21 1263.46C1697.21 1312.75 1663.03 1332.87 1620.24 1308.34V1308.12Z" fill="#455A64"/>
<path d="M1620.09 1209.01L1078.93 896.498L460.342 1253.59V1275.95L1001.51 1588.46L1620.09 1231.3V1209.01Z" fill="#37474F"/>
<path d="M1620.09 1209.01L1001.51 1566.17L460.342 1253.59L1078.93 896.498L1620.09 1209.01Z" fill="#455A64"/>
<path d="M1143.7 1393.91L602.458 1081.4C589.21 1073.14 574.006 1068.55 558.401 1068.09C547.939 1067.86 537.608 1070.45 528.482 1075.57C508.66 1087.16 405.364 1146.85 396.986 1151.49C376.491 1162.93 364 1187.09 364 1218.81C364 1275.06 402.147 1341.18 450.841 1369.3L992.158 1681.74C1005.42 1689.95 1020.62 1694.5 1036.21 1694.9C1046.19 1694.97 1056.01 1692.53 1064.79 1687.79C1071.3 1684.2 1188.5 1615.99 1196.81 1611.57C1203.68 1607.83 1209.74 1602.74 1214.61 1596.61C1225.68 1581.46 1231.32 1563.01 1230.62 1544.26C1230.54 1488.08 1192.39 1422.03 1143.7 1393.91Z" fill="#37474F"/>
<path d="M1076.01 1354.72L924.315 1442.08L835.978 1493.09L874.574 1515.53L962.911 1464.52L1114.68 1376.71L1076.01 1354.72ZM1152.3 1399.6L1001.58 1486.96L913.244 1538.05L951.915 1560.49L1033.37 1513.51L1182.59 1427.12C1173.65 1416.82 1163.47 1407.65 1152.3 1399.82V1399.6ZM1205.48 1458.39L1055.89 1544.48L990.212 1582.33L1028.88 1604.77L1071.67 1580.23L1221.26 1493.99C1217.25 1481.74 1212.09 1469.9 1205.86 1458.61L1205.48 1458.39ZM998.515 1309.91L846.823 1397.73L758.486 1448.74L797.157 1471.18L885.494 1420.17L1037.04 1332.58L998.515 1309.91ZM1229.79 1533.63L1078.7 1621L1067.85 1627.28L982.358 1676.57L991.933 1681.96C1003.08 1688.67 1015.52 1692.95 1028.43 1694.53L1222.91 1582.33C1228.05 1570.31 1230.6 1557.33 1230.39 1544.26C1230.54 1540.89 1230.02 1537.23 1229.79 1533.86V1533.63ZM843.981 1220.6L692.439 1308.42L604.102 1359.8L642.698 1382.24L731.035 1331.23L882.577 1243.64L843.981 1220.6ZM921.248 1265.48L769.482 1353L681.145 1404.01L719.815 1426.45L808.152 1375.44L959.844 1287.85L921.248 1265.48ZM558.4 1068.09C547.911 1068.04 537.593 1070.75 528.481 1075.94C508.509 1087.69 405.362 1147.3 396.985 1151.86C385.529 1158.55 376.572 1168.79 371.479 1181.03L565.955 1068.84C563.337 1068.54 560.868 1068.09 558.4 1068.09ZM611.881 1086.79L460.339 1174.3L449.344 1180.59C449.55 1194.37 451.845 1208.03 456.15 1221.13L499.01 1196.37L650.552 1108.85L611.881 1086.79ZM766.639 1176.02L614.948 1263.69L526.611 1314.92L565.282 1337.36L653.544 1286.35L805.31 1198.76L766.639 1176.02ZM689.148 1131.52L537.681 1219.18L471.933 1257.03C478.355 1268.33 486.034 1278.87 494.821 1288.45L576.277 1241.4L728.043 1153.88L689.148 1131.52Z" fill="#263238"/>
<path d="M1001.58 1486.96L460.341 1174.45C457.129 1172.69 453.806 1171.14 450.393 1169.81C449.804 1173.45 449.454 1177.13 449.346 1180.81C449.346 1230.1 483.977 1290.09 526.687 1314.7L1068 1627.21C1071.23 1628.98 1074.58 1630.53 1078.03 1631.85C1078.55 1628.23 1078.87 1624.58 1079 1620.92C1078.7 1571.56 1044.29 1511.64 1001.58 1486.96Z" fill="#263238"/>
<path d="M1094.78 1611.72C1094.78 1562.43 1060.15 1502.44 1017.44 1477.83C996.272 1465.57 977.198 1464.52 963.286 1472.45L946.98 1481.5C932.917 1489.5 924.54 1506.93 924.54 1531.61C924.54 1580.91 959.097 1640.82 1001.81 1665.5C1022.9 1677.7 1041.9 1679.12 1055.81 1671.34L1072.64 1661.24C1086.18 1653.16 1094.78 1636.11 1094.78 1611.72Z" fill="#02D767"/>
<path opacity="0.2" d="M1094.78 1611.72C1094.78 1562.43 1060.15 1502.44 1017.44 1477.83C996.272 1465.57 977.198 1464.52 963.286 1472.45L946.98 1481.5C932.917 1489.5 924.54 1506.93 924.54 1531.61C924.54 1580.91 959.097 1640.82 1001.81 1665.5C1022.9 1677.7 1041.9 1679.12 1055.81 1671.34L1072.64 1661.24C1086.18 1653.16 1094.78 1636.11 1094.78 1611.72Z" fill="black"/>
<path d="M1001.58 1486.96C1044.29 1511.57 1078.92 1571.56 1078.92 1620.85C1078.92 1670.15 1044.29 1690.19 1001.58 1665.73C958.872 1641.27 924.315 1581.14 924.315 1531.84C924.315 1482.55 959.022 1462.28 1001.58 1486.96Z" fill="#02D767"/>
<path opacity="0.2" d="M1001.58 1504.76C1035.77 1524.51 1063.44 1572.46 1063.44 1611.95C1063.44 1651.44 1035.77 1667.38 1001.58 1647.63C967.4 1627.88 939.725 1579.94 939.725 1540.52C939.725 1501.1 967.475 1485.09 1001.58 1504.76Z" fill="black"/>
<path opacity="0.2" d="M1001.58 1504.77C990.929 1497.71 977.915 1495.15 965.382 1497.66C957.944 1507.28 954.225 1519.25 954.91 1531.39C954.91 1570.81 982.586 1618.83 1016.77 1638.58C1027.37 1645.77 1040.39 1648.46 1052.97 1646.06C1060.44 1636.46 1064.16 1624.47 1063.44 1612.33C1063.74 1572.46 1035.77 1524.36 1001.58 1504.77Z" fill="black"/>
<path d="M1015.57 1541.41C1013.25 1539.72 1010.53 1538.68 1007.68 1538.39C1004.82 1538.1 1001.94 1538.57 999.337 1539.76L984.975 1547.99C982.664 1549.69 980.84 1551.97 979.685 1554.59C978.53 1557.22 978.084 1560.1 978.393 1562.95C978.821 1571 981.144 1578.83 985.174 1585.81C989.203 1592.79 994.825 1598.72 1001.58 1603.12C1003.91 1604.84 1006.67 1605.89 1009.55 1606.17C1012.44 1606.45 1015.34 1605.93 1017.96 1604.69C1020.35 1603.34 1029.85 1597.96 1032.32 1596.46C1034.6 1594.74 1036.39 1592.46 1037.52 1589.83C1038.65 1587.21 1039.07 1584.34 1038.76 1581.5C1038.3 1573.47 1035.97 1565.65 1031.94 1558.69C1027.91 1551.73 1022.31 1545.81 1015.57 1541.41V1541.41Z" fill="#02D767"/>
<path opacity="0.2" d="M1015.57 1541.41C1013.25 1539.72 1010.53 1538.68 1007.68 1538.39C1004.82 1538.1 1001.94 1538.57 999.337 1539.76L984.975 1547.99C982.664 1549.69 980.84 1551.97 979.685 1554.59C978.53 1557.22 978.084 1560.1 978.393 1562.95C978.821 1571 981.144 1578.83 985.174 1585.81C989.203 1592.79 994.825 1598.72 1001.58 1603.12C1003.91 1604.84 1006.67 1605.89 1009.55 1606.17C1012.44 1606.45 1015.34 1605.93 1017.96 1604.69C1020.35 1603.34 1029.85 1597.96 1032.32 1596.46C1034.6 1594.74 1036.39 1592.46 1037.52 1589.83C1038.65 1587.21 1039.07 1584.34 1038.76 1581.5C1038.3 1573.47 1035.97 1565.65 1031.94 1558.69C1027.91 1551.73 1022.31 1545.81 1015.57 1541.41V1541.41Z" fill="black"/>
<path d="M1001.58 1549.41C1008.34 1553.81 1013.97 1559.74 1018.01 1566.72C1022.06 1573.7 1024.4 1581.53 1024.84 1589.58C1024.84 1604.54 1014.45 1610.37 1001.58 1603.04C994.828 1598.63 989.21 1592.68 985.182 1585.69C981.153 1578.7 978.828 1570.86 978.394 1562.8C978.394 1548.07 988.94 1542.01 1001.58 1549.41Z" fill="#02D767"/>
<path d="M553.463 1299.21C553.463 1249.92 518.832 1189.93 476.122 1165.25C454.954 1153.06 435.88 1152.01 421.968 1159.94L405.512 1168.99C391.525 1176.99 383.072 1194.42 383.072 1219.03C383.072 1268.39 417.704 1328.31 460.414 1352.99C481.432 1365.11 500.431 1366.61 514.344 1358.83C517.261 1357.18 528.406 1350.37 531.173 1348.73C544.862 1340.65 553.463 1323.6 553.463 1299.21Z" fill="#02D767"/>
<path opacity="0.2" d="M553.463 1299.21C553.463 1249.92 518.832 1189.93 476.122 1165.25C454.954 1153.06 435.88 1152.01 421.968 1159.94L405.512 1168.99C391.525 1176.99 383.072 1194.42 383.072 1219.03C383.072 1268.39 417.704 1328.31 460.414 1352.99C481.432 1365.11 500.431 1366.61 514.344 1358.83C517.261 1357.18 528.406 1350.37 531.173 1348.73C544.862 1340.65 553.463 1323.6 553.463 1299.21Z" fill="black"/>
<path d="M460.339 1174.45C503.049 1199.06 537.681 1259.05 537.681 1308.34C537.681 1357.63 503.049 1377.68 460.339 1353.22C417.629 1328.76 383.072 1268.4 383.072 1219.03C383.072 1169.66 417.629 1149.77 460.339 1174.45Z" fill="#02D767"/>
<path opacity="0.2" d="M460.34 1192.25C494.448 1212 522.198 1259.57 522.198 1299.44C522.198 1339.31 494.448 1354.87 460.34 1335.12C426.232 1315.37 398.481 1267.43 398.481 1228.01C398.481 1188.59 426.157 1172.81 460.34 1192.25Z" fill="black"/>
<path opacity="0.2" d="M460.342 1192.26C449.717 1185.12 436.721 1182.44 424.139 1184.78C416.645 1194.4 412.897 1206.41 413.593 1218.59C413.593 1258 441.268 1306.03 475.451 1325.7C480.698 1329.26 486.596 1331.76 492.808 1333.04C499.02 1334.33 505.424 1334.37 511.654 1333.18C519.149 1323.59 522.898 1311.6 522.2 1299.44C522.2 1259.95 494.45 1212 460.342 1192.26Z" fill="black"/>
<path d="M474.253 1228.91C471.936 1227.22 469.212 1226.17 466.36 1225.88C463.508 1225.59 460.63 1226.07 458.021 1227.26L443.735 1235.49C441.413 1237.18 439.58 1239.45 438.423 1242.08C437.267 1244.71 436.828 1247.59 437.153 1250.45C437.563 1258.5 439.879 1266.34 443.91 1273.32C447.941 1280.31 453.572 1286.23 460.34 1290.61C462.658 1292.34 465.401 1293.39 468.275 1293.67C471.148 1293.94 474.043 1293.43 476.646 1292.18C479.04 1290.84 488.539 1285.45 491.007 1283.96C493.302 1282.25 495.106 1279.97 496.236 1277.34C497.365 1274.72 497.781 1271.84 497.44 1269C497.007 1260.96 494.68 1253.14 490.651 1246.17C486.621 1239.21 481.002 1233.29 474.253 1228.91V1228.91Z" fill="#02D767"/>
<path opacity="0.2" d="M474.253 1228.91C471.936 1227.22 469.212 1226.17 466.36 1225.88C463.508 1225.59 460.63 1226.07 458.021 1227.26L443.735 1235.49C441.413 1237.18 439.58 1239.45 438.423 1242.08C437.267 1244.71 436.828 1247.59 437.153 1250.45C437.563 1258.5 439.879 1266.34 443.91 1273.32C447.941 1280.31 453.572 1286.23 460.34 1290.61C462.658 1292.34 465.401 1293.39 468.275 1293.67C471.148 1293.94 474.043 1293.43 476.646 1292.18C479.04 1290.84 488.539 1285.45 491.007 1283.96C493.302 1282.25 495.106 1279.97 496.236 1277.34C497.365 1274.72 497.781 1271.84 497.44 1269C497.007 1260.96 494.68 1253.14 490.651 1246.17C486.621 1239.21 481.002 1233.29 474.253 1228.91V1228.91Z" fill="black"/>
<path d="M460.342 1236.91C467.085 1241.32 472.697 1247.25 476.725 1254.23C480.753 1261.21 483.084 1269.03 483.529 1277.08C483.529 1292.04 473.132 1297.87 460.342 1290.47C453.574 1286.08 447.943 1280.16 443.911 1273.17C439.88 1266.19 437.564 1258.35 437.154 1250.3C437.154 1235.49 447.477 1229.51 460.342 1236.91Z" fill="#02D767"/>
<path d="M1011.38 1470.43L469.84 1157.85C456.503 1149.78 441.293 1145.32 425.709 1144.91C388.758 1144.91 364 1174.83 364 1219.19C364 1275.28 402.072 1341.33 450.841 1369.53L992.083 1681.96C1005.37 1690.18 1020.6 1694.7 1036.21 1695.05C1044.96 1695.19 1053.63 1693.33 1061.55 1689.61C1069.47 1685.89 1076.44 1680.41 1081.92 1673.59C1093.02 1658.3 1098.66 1639.73 1097.92 1620.85C1097.92 1564.68 1059.85 1498.63 1011.38 1470.43ZM1001.88 1665.58L460.341 1353C417.556 1328.39 383.074 1268.48 383.074 1219.19C383.074 1169.89 417.556 1149.85 460.341 1174.31L1001.58 1486.96C1044.37 1511.57 1078.85 1571.49 1078.85 1620.85C1078.85 1670.22 1044.37 1690.12 1001.58 1665.58H1001.88Z" fill="#455A64"/>
<path d="M1378.57 1226.74C1378.38 1224.69 1377.66 1222.73 1376.46 1221.06C1375.26 1219.39 1373.64 1218.07 1371.76 1217.24L863.132 923.728C858.018 921.145 852.369 919.799 846.639 919.799C840.909 919.799 835.26 921.145 830.146 923.728L495.871 1116.93C493.94 1117.78 492.281 1119.14 491.079 1120.87C489.877 1122.6 489.18 1124.63 489.064 1126.73C489.064 1130.1 489.064 1159.94 489.064 1163.38C489.249 1165.43 489.977 1167.39 491.174 1169.06C492.371 1170.73 493.992 1172.05 495.871 1172.88L1004.5 1466.47C1009.6 1469.05 1015.24 1470.4 1020.96 1470.4C1026.67 1470.4 1032.31 1469.05 1037.41 1466.47L1371.99 1273.26C1373.87 1272.41 1375.49 1271.08 1376.68 1269.39C1377.88 1267.71 1378.61 1265.74 1378.79 1263.69L1378.57 1226.74Z" fill="#02D767"/>
<path opacity="0.2" d="M1378.57 1226.74C1378.38 1224.69 1377.66 1222.73 1376.46 1221.06C1375.26 1219.39 1373.64 1218.07 1371.76 1217.24L863.132 923.728C858.018 921.145 852.369 919.799 846.639 919.799C840.909 919.799 835.26 921.145 830.146 923.728L495.871 1116.93C493.94 1117.78 492.281 1119.14 491.079 1120.87C489.877 1122.6 489.18 1124.63 489.064 1126.73C489.064 1130.1 489.064 1159.94 489.064 1163.38C489.249 1165.43 489.977 1167.39 491.174 1169.06C492.371 1170.73 493.992 1172.05 495.871 1172.88L1004.5 1466.47C1009.6 1469.05 1015.24 1470.4 1020.96 1470.4C1026.67 1470.4 1032.31 1469.05 1037.41 1466.47L1371.99 1273.26C1373.87 1272.41 1375.49 1271.08 1376.68 1269.39C1377.88 1267.71 1378.61 1265.74 1378.79 1263.69L1378.57 1226.74Z" fill="black"/>
<path d="M1371.76 1217.23L1020.21 1014.08V1470.35C1026.2 1470.62 1032.16 1469.3 1037.49 1466.54L1372.06 1273.33C1373.94 1272.48 1375.56 1271.15 1376.76 1269.47C1377.95 1267.78 1378.68 1265.81 1378.87 1263.76V1226.81C1378.67 1224.72 1377.9 1222.72 1376.65 1221.03C1375.4 1219.34 1373.71 1218.03 1371.76 1217.23V1217.23Z" fill="#02D767"/>
<path d="M1037.19 1429.52L1371.76 1236.31C1373.74 1235.62 1375.46 1234.33 1376.67 1232.63C1377.89 1230.92 1378.54 1228.87 1378.54 1226.77C1378.54 1224.68 1377.89 1222.63 1376.67 1220.92C1375.46 1219.22 1373.74 1217.93 1371.76 1217.24L863.132 923.728C858.018 921.145 852.368 919.799 846.639 919.799C840.909 919.799 835.259 921.145 830.145 923.728L495.871 1116.93C493.882 1117.6 492.153 1118.88 490.928 1120.58C489.704 1122.29 489.045 1124.33 489.045 1126.43C489.045 1128.53 489.704 1130.58 490.928 1132.28C492.153 1133.99 493.882 1135.26 495.871 1135.93L1004.5 1429.52C1009.57 1432.06 1015.17 1433.39 1020.84 1433.39C1026.52 1433.39 1032.12 1432.06 1037.19 1429.52V1429.52Z" fill="#02D767"/>
<path opacity="0.1" d="M1037.19 1429.52L1371.76 1236.31C1373.74 1235.62 1375.46 1234.33 1376.67 1232.63C1377.89 1230.92 1378.54 1228.87 1378.54 1226.77C1378.54 1224.68 1377.89 1222.63 1376.67 1220.92C1375.46 1219.22 1373.74 1217.93 1371.76 1217.24L863.132 923.728C858.018 921.145 852.368 919.799 846.639 919.799C840.909 919.799 835.259 921.145 830.145 923.728L495.871 1116.93C493.882 1117.6 492.153 1118.88 490.928 1120.58C489.704 1122.29 489.045 1124.33 489.045 1126.43C489.045 1128.53 489.704 1130.58 490.928 1132.28C492.153 1133.99 493.882 1135.26 495.871 1135.93L1004.5 1429.52C1009.57 1432.06 1015.17 1433.39 1020.84 1433.39C1026.52 1433.39 1032.12 1432.06 1037.19 1429.52V1429.52Z" fill="black"/>
<path d="M1063.74 540.756C1052.68 534.283 1040.12 530.828 1027.31 530.736C1014.5 530.644 1001.89 533.919 990.736 540.232C968.297 552.499 546.508 796.193 524.816 809.507C513.8 816.015 504.682 825.296 498.37 836.425C492.057 847.553 488.771 860.142 488.838 872.936V1132.41L692.066 1249.7L1155.82 981.768V594.312L1063.74 540.756Z" fill="#02D767"/>
<path opacity="0.25" d="M1063.74 540.756C1052.68 534.283 1040.12 530.828 1027.31 530.736C1014.5 530.644 1001.89 533.919 990.736 540.232C968.297 552.499 546.508 796.193 524.816 809.507C513.8 816.015 504.682 825.296 498.37 836.425C492.057 847.553 488.771 860.142 488.838 872.936V1132.41L692.066 1249.7L1155.82 981.768V594.312L1063.74 540.756Z" fill="white"/>
<path d="M692.292 1249.4V861.865L599.991 808.608C588.752 802.102 575.998 798.672 563.013 798.664C550.027 798.656 537.268 802.069 526.022 808.561C514.775 815.053 505.438 824.393 498.95 835.642C492.462 846.89 489.052 859.65 489.064 872.636V1132.11L692.292 1249.4Z" fill="#02D767"/>
<path d="M535.513 877.723L657.734 948.408C660.111 949.925 662.096 951.983 663.526 954.414C664.956 956.845 665.791 959.58 665.962 962.395C665.962 967.481 662.297 969.875 657.734 966.883L535.513 896.049C533.135 894.532 531.151 892.474 529.721 890.043C528.291 887.612 527.456 884.877 527.285 882.062C527.285 877.05 531.025 875.105 535.513 877.723Z" fill="#455A64"/>
<path d="M535.513 931.281L657.734 1001.89C660.111 1003.41 662.096 1005.47 663.526 1007.9C664.956 1010.33 665.791 1013.06 665.962 1015.88C665.962 1020.96 662.297 1022.91 657.734 1020.29L535.513 949.756C533.135 948.239 531.151 946.181 529.721 943.75C528.291 941.319 527.456 938.584 527.285 935.769C527.285 930.683 531.025 928.663 535.513 931.281Z" fill="#455A64"/>
<path d="M535.513 984.912L657.734 1055.52C660.106 1057.03 662.088 1059.07 663.518 1061.49C664.948 1063.91 665.785 1066.63 665.962 1069.43C665.962 1074.52 662.297 1076.54 657.734 1073.92L535.513 1003.31C533.141 1001.81 531.159 999.762 529.729 997.344C528.299 994.926 527.462 992.204 527.285 989.4C527.285 984.314 531.025 982.294 535.513 984.912Z" fill="#455A64"/>
<path d="M535.513 1038.54L657.734 1109.08C660.111 1110.59 662.096 1112.65 663.526 1115.08C664.956 1117.51 665.791 1120.25 665.962 1123.06C665.962 1128.15 662.297 1130.54 657.734 1127.55L535.513 1056.94C533.135 1055.42 531.151 1053.37 529.721 1050.94C528.291 1048.5 527.456 1045.77 527.285 1042.95C527.285 1038.17 531.025 1035.92 535.513 1038.54Z" fill="#455A64"/>
<path d="M1592.42 1131.66C1591.5 1114.51 1586.54 1097.81 1577.95 1082.92C1569.36 1068.04 1557.37 1055.4 1542.98 1046.02L1409.91 969.202C1396.3 961.348 1383.95 960.525 1375.05 965.611L1220.82 1054.85C1211.62 1059.93 1205.86 1071.08 1205.86 1087.08V1101.6C1206.8 1118.75 1211.77 1135.44 1220.37 1150.31C1228.98 1165.18 1240.97 1177.81 1255.38 1187.16L1388.37 1263.68C1402.06 1271.54 1414.47 1272.29 1423.37 1267.12L1578.06 1177.81C1587.03 1172.58 1592.57 1161.51 1592.57 1145.73L1592.42 1131.66Z" fill="#02D767"/>
<path opacity="0.05" d="M1592.42 1131.66C1591.5 1114.51 1586.54 1097.81 1577.95 1082.92C1569.36 1068.04 1557.37 1055.4 1542.98 1046.02L1409.91 969.202C1396.3 961.348 1383.95 960.525 1375.05 965.611L1220.82 1054.85C1211.62 1059.93 1205.86 1071.08 1205.86 1087.08V1101.6C1206.8 1118.75 1211.77 1135.44 1220.37 1150.31C1228.98 1165.18 1240.97 1177.81 1255.38 1187.16L1388.37 1263.68C1402.06 1271.54 1414.47 1272.29 1423.37 1267.12L1578.06 1177.81C1587.03 1172.58 1592.57 1161.51 1592.57 1145.73L1592.42 1131.66Z" fill="black"/>
<path d="M1437.73 1235.04V1220.98C1436.79 1203.83 1431.81 1187.14 1423.2 1172.27C1414.6 1157.41 1402.61 1144.78 1388.22 1135.41L1255.15 1058.59C1227.85 1042.81 1205.71 1055.6 1205.71 1087.16V1101.67C1206.64 1118.83 1211.62 1135.52 1220.22 1150.39C1228.83 1165.26 1240.82 1177.89 1255.22 1187.24L1388.22 1263.76C1415.29 1279.47 1437.73 1266.61 1437.73 1235.04Z" fill="#02D767"/>
<path opacity="0.2" d="M1437.73 1235.04V1220.98C1436.79 1203.83 1431.81 1187.14 1423.2 1172.27C1414.6 1157.41 1402.61 1144.78 1388.22 1135.41L1255.15 1058.59C1227.85 1042.81 1205.71 1055.6 1205.71 1087.16V1101.67C1206.64 1118.83 1211.62 1135.52 1220.22 1150.39C1228.83 1165.26 1240.82 1177.89 1255.22 1187.24L1388.22 1263.76C1415.29 1279.47 1437.73 1266.61 1437.73 1235.04Z" fill="black"/>
<path d="M2105.39 1167.72L1873.51 1301.68V1357.03C1873.51 1431.01 1935.97 1526.97 2012.93 1571.4C2056.17 1596.39 2094.84 1599.75 2120.35 1584.87C2140.32 1573.2 2326.19 1465.79 2351.77 1451.28C2372.04 1439.76 2384.31 1416.8 2384.31 1383.96V1328.61L2105.39 1167.72Z" fill="#02D767"/>
<path opacity="0.2" d="M2105.39 1167.72L1873.51 1301.68V1357.03C1873.51 1431.01 1935.97 1526.97 2012.93 1571.4C2056.17 1596.39 2094.84 1599.75 2120.35 1584.87C2140.32 1573.2 2326.19 1465.79 2351.77 1451.28C2372.04 1439.76 2384.31 1416.8 2384.31 1383.96V1328.61L2105.39 1167.72Z" fill="black"/>
<path d="M1873.36 1301.68L2105.38 1167.72L2384.16 1328.68L2152.21 1462.65L1873.36 1301.68Z" fill="#02D767"/>
<path opacity="0.25" d="M1873.36 1301.68L2105.38 1167.72L2384.16 1328.68L2152.21 1462.65L1873.36 1301.68Z" fill="white"/>
<path d="M1911.43 1301.69L2105.39 1189.71L2346.09 1328.69L2152.21 1440.66L1911.43 1301.69Z" fill="#02D767"/>
<path opacity="0.25" d="M1911.43 1301.69L2105.39 1189.71L2346.09 1328.69L2152.21 1440.66L1911.43 1301.69Z" fill="black"/>
<path d="M2152.21 1518C2152.21 1591.97 2089.75 1615.91 2012.78 1571.41C1935.81 1526.9 1873.36 1431.01 1873.36 1357.03V1301.68L2152.21 1462.65V1518Z" fill="#02D767"/>
<path d="M2105.38 1212.08C2105.38 1274.16 2157 1357.04 2221.02 1400.95L2346.09 1328.69L2105.38 1189.71V1212.08Z" fill="#02D767"/>
<path opacity="0.4" d="M2105.38 1212.08C2105.38 1274.16 2157 1357.04 2221.02 1400.95L2346.09 1328.69L2105.38 1189.71V1212.08Z" fill="black"/>
<path d="M1893.03 1258.82L1912.03 1269.82L1950.7 1247.53L1931.63 1236.53L1893.03 1258.82Z" fill="#02D767"/>
<path opacity="0.25" d="M1893.03 1258.82L1912.03 1269.82L1950.7 1247.53L1931.63 1236.53L1893.03 1258.82Z" fill="white"/>
<path d="M1912.03 1301.38V1269.82L1893.03 1258.82V1290.39L1912.03 1301.38Z" fill="#02D767"/>
<path d="M1950.7 1247.53V1279.02L1912.03 1301.38V1269.82L1950.7 1247.53Z" fill="#02D767"/>
<path opacity="0.25" d="M1950.7 1247.53V1279.02L1912.03 1301.38V1269.82L1950.7 1247.53Z" fill="black"/>
<path d="M1970.3 1214.17L1989.37 1225.16L2028.04 1202.87L2008.97 1191.88L1970.3 1214.17Z" fill="#02D767"/>
<path opacity="0.25" d="M1970.3 1214.17L1989.37 1225.16L2028.04 1202.87L2008.97 1191.88L1970.3 1214.17Z" fill="white"/>
<path d="M1989.37 1256.73V1225.17L1970.3 1214.17V1245.73L1989.37 1256.73Z" fill="#02D767"/>
<path d="M2028.04 1202.87V1234.44L1989.37 1256.73V1225.16L2028.04 1202.87Z" fill="#02D767"/>
<path opacity="0.25" d="M2028.04 1202.87V1234.44L1989.37 1256.73V1225.16L2028.04 1202.87Z" fill="black"/>
<path d="M2047.64 1169.51L2066.71 1180.51L2105.31 1158.14L2086.31 1147.15L2047.64 1169.51Z" fill="#02D767"/>
<path opacity="0.25" d="M2047.64 1169.51L2066.71 1180.51L2105.31 1158.14L2086.31 1147.15L2047.64 1169.51Z" fill="white"/>
<path d="M2066.71 1212.07V1180.51L2047.64 1169.51V1201L2066.71 1212.07Z" fill="#02D767"/>
<path d="M2105.31 1158.14L2105.39 1189.71L2066.71 1212.07V1180.51L2105.31 1158.14Z" fill="#02D767"/>
<path opacity="0.25" d="M2105.31 1158.14L2105.39 1189.71L2066.71 1212.07V1180.51L2105.31 1158.14Z" fill="black"/>
<path d="M2202.62 779.514L1734.76 475.607C1711.25 460.318 1683.97 451.822 1655.93 451.057C1627.9 450.291 1600.2 457.286 1575.89 471.269C1556.66 482.264 1481.71 525.648 1462.04 536.942C1438.9 550.248 1419.7 569.45 1406.39 592.592L1177.43 989.024L1409.31 1122.91L1522.55 1057.61L1623.38 708.38C1627.92 692.726 1634.94 677.902 1644.18 664.474C1674.83 661.988 1705.51 668.902 1732.14 684.295L2088.78 890.216C2090.45 891.423 2092.41 892.163 2094.46 892.36C2096.51 892.557 2098.58 892.204 2100.45 891.338C2103.44 889.617 2210.63 827.684 2213.62 826.038C2215.3 824.845 2216.64 823.226 2217.49 821.347C2218.35 819.468 2218.69 817.396 2218.48 815.342V808.76C2218.16 803.016 2216.58 797.413 2213.84 792.356C2211.09 787.299 2207.26 782.913 2202.62 779.514V779.514Z" fill="#02D767"/>
<path opacity="0.25" d="M2202.62 779.514L1734.76 475.607C1711.25 460.318 1683.97 451.822 1655.93 451.057C1627.9 450.291 1600.2 457.286 1575.89 471.269C1556.81 482.19 1483.29 524.675 1462.72 536.568C1487.03 522.635 1514.72 515.676 1542.74 516.454C1570.75 517.233 1598.01 525.719 1621.51 540.981L2089.38 844.888C2094.06 848.291 2097.93 852.695 2100.7 857.78C2103.47 862.864 2105.07 868.502 2105.39 874.284V881.09C2105.6 883.133 2105.26 885.195 2104.4 887.063C2103.55 888.93 2102.21 890.535 2100.52 891.712C2103.52 889.991 2210.7 828.058 2213.69 826.413C2215.38 825.219 2216.72 823.6 2217.57 821.721C2218.42 819.842 2218.76 817.77 2218.56 815.716V809.134C2218.29 803.319 2216.71 797.639 2213.96 792.513C2211.2 787.386 2207.33 782.944 2202.62 779.514Z" fill="white"/>
<g opacity="0.2">
<path opacity="0.2" d="M1644.33 664.699C1635.08 678.08 1628.04 692.852 1623.46 708.456L1522.71 1057.77L1409.46 1123.06L1510.14 773.98C1518.69 744.251 1536.13 717.847 1560.11 698.314C1584.1 678.78 1613.48 667.05 1644.33 664.699V664.699Z" fill="black"/>
</g>
<path d="M1510.21 773.908C1516.58 751.725 1527.91 731.282 1543.35 714.131C1558.8 696.979 1577.94 683.57 1599.34 674.919C1620.73 666.269 1643.82 662.604 1666.84 664.203C1689.86 665.803 1712.22 672.624 1732.21 684.15L2088.85 890.07C2097.98 895.306 2105.38 891.043 2105.38 880.571V873.989C2105.07 868.207 2103.47 862.569 2100.7 857.485C2097.93 852.4 2094.06 847.996 2089.38 844.593L1621.51 540.686C1604.16 529.414 1584.68 521.793 1564.29 518.287C1543.89 514.78 1522.99 515.462 1502.87 520.291C1482.74 525.119 1463.81 533.993 1447.22 546.372C1430.64 558.751 1416.75 574.377 1406.39 592.297L1177.43 988.729L1409.31 1122.62L1510.21 773.908Z" fill="#02D767"/>
<path d="M2085.49 855.286C2088.33 857.12 2090.7 859.601 2092.41 862.526C2094.11 865.45 2095.1 868.736 2095.29 872.115C2095.29 878.398 2090.87 880.867 2085.49 877.8C2082.66 875.941 2080.3 873.443 2078.61 870.507C2076.92 867.57 2075.95 864.278 2075.76 860.896C2075.76 854.687 2080.1 852.144 2085.49 855.286Z" fill="#37474F"/>
<path d="M1698.11 521.377C1698.1 522.262 1698.34 523.131 1698.79 523.894C1699.23 524.657 1699.88 525.286 1700.65 525.715L2066.04 680.249C2066.87 680.497 2067.75 680.523 2068.59 680.326C2069.43 680.13 2070.2 679.716 2070.83 679.127C2072.73 677.541 2074.23 675.529 2075.2 673.254C2076.18 670.98 2076.6 668.507 2076.44 666.037C2076.42 665.15 2076.15 664.286 2075.68 663.536C2075.2 662.786 2074.54 662.177 2073.75 661.774L1708.43 507.09C1707.6 506.852 1706.72 506.838 1705.88 507.048C1705.04 507.258 1704.27 507.685 1703.64 508.287C1701.71 509.839 1700.19 511.848 1699.22 514.133C1698.26 516.418 1697.87 518.907 1698.11 521.377Z" fill="#455A64"/>
<path d="M2063.35 675.924C2063.16 673.458 2063.56 670.983 2064.53 668.706C2065.49 666.429 2066.98 664.415 2068.88 662.834C2072.47 660.141 2075.84 661.562 2076.36 666.05C2076.53 668.52 2076.1 670.992 2075.13 673.267C2074.15 675.542 2072.65 677.554 2070.75 679.14C2067.24 681.907 2063.87 680.411 2063.35 675.924Z" fill="#37474F"/>
<path d="M2289.91 1393.99L2244.36 1420.24C2243.71 1420.79 2242.94 1421.17 2242.12 1421.36C2241.3 1421.49 2240.46 1421.49 2239.65 1421.36C2237 1421.29 2234.42 1420.52 2232.17 1419.12C2216.68 1410.37 2197.83 1378.2 2190.28 1347.69L2072.7 881.092L2088.85 890.442C2090.66 891.767 2092.81 892.531 2095.05 892.638C2097.28 892.744 2099.5 892.188 2101.42 891.04C2104.49 889.47 2114.21 883.561 2127.15 876.081C2127.68 875.813 2128.18 875.487 2128.65 875.108C2130.21 873.782 2131.34 872.007 2131.86 870.022C2132.13 869.269 2132.33 868.493 2132.46 867.703C2132.58 866.835 2132.58 865.954 2132.46 865.085V858.653C2132.14 852.862 2130.54 847.215 2127.77 842.119C2125 837.023 2121.14 832.604 2116.45 829.182L2048.31 784.826L2016.67 659.688C2016.6 659.318 2016.6 658.937 2016.67 658.566C2015.85 655.949 2015.33 653.256 2014.73 650.563C2013.66 645.101 2012.91 639.581 2012.48 634.033C2012.48 631.714 2012.48 629.47 2012.48 627.375V624.907C2012.36 624.391 2012.36 623.852 2012.48 623.336C2012.4 621.816 2012.4 620.293 2012.48 618.774C2012.77 615.071 2013.55 611.423 2014.8 607.928C2015.26 606.534 2015.89 605.202 2016.67 603.963C2016.99 603.188 2017.44 602.477 2018.02 601.869L2019.74 599.55L2020.26 599.027C2021.25 598.063 2022.35 597.233 2023.55 596.559C2029.99 592.744 2061.63 574.642 2070 569.855C2076.29 566.265 2084.96 567.013 2095.29 573.072C2126.33 590.799 2159.24 647.197 2169.19 698.733L2295.22 1352.85C2299.64 1374.76 2296.94 1389.72 2289.91 1393.99Z" fill="#02D767"/>
<path opacity="0.25" d="M2289.91 1393.98L2244.36 1420.24C2243.71 1420.79 2242.94 1421.17 2242.11 1421.36C2241.3 1421.48 2240.46 1421.48 2239.65 1421.36C2237 1421.29 2234.42 1420.51 2232.17 1419.12C2216.68 1410.36 2197.83 1378.2 2190.28 1347.68L2072.7 881.089L2088.85 890.439C2090.66 891.765 2092.81 892.528 2095.05 892.635C2097.28 892.741 2099.5 892.186 2101.42 891.038C2104.49 889.467 2114.21 883.558 2127.15 876.078C2127.68 875.81 2128.18 875.484 2128.65 875.106C2130.29 873.844 2131.42 872.042 2131.86 870.019C2132.13 869.266 2132.33 868.49 2132.46 867.701C2132.58 866.832 2132.58 865.951 2132.46 865.083V858.65C2132.14 852.859 2130.54 847.212 2127.77 842.116C2125 837.02 2121.14 832.601 2116.45 829.179L2048.31 784.824L2016.67 659.686C2016.6 659.315 2016.6 658.934 2016.67 658.564C2015.85 655.946 2015.33 653.253 2014.73 650.56C2013.66 645.098 2012.91 639.579 2012.48 634.03C2012.15 630.472 2012.15 626.891 2012.48 623.334C2012.4 621.814 2012.4 620.291 2012.48 618.771C2012.87 613.556 2014.3 608.47 2016.67 603.811C2016.99 603.035 2017.44 602.325 2018.02 601.717L2019.74 599.398L2020.26 598.875C2021.25 597.911 2022.35 597.081 2023.55 596.406C2029.99 592.591 2061.63 574.49 2070 569.703C2076.29 566.113 2084.96 566.861 2095.29 572.919C2126.33 590.647 2159.24 647.045 2169.19 698.581L2295.22 1352.69C2299.64 1374.76 2296.94 1389.72 2289.91 1393.98Z" fill="white"/>
<path d="M2244.36 1420.24C2243.71 1420.78 2242.94 1421.17 2242.12 1421.36C2241.3 1421.48 2240.47 1421.48 2239.65 1421.36C2237 1421.29 2234.42 1420.51 2232.17 1419.11C2216.69 1410.36 2197.84 1378.2 2190.28 1347.68L2072.62 881.088L2088.85 890.437C2090.62 891.731 2092.73 892.489 2094.92 892.622C2097.1 892.754 2099.28 892.256 2101.2 891.186L2127.15 876.226C2129.07 874.988 2130.6 873.24 2131.58 871.179C2132.56 869.118 2132.94 866.824 2132.69 864.557V858.648C2132.37 852.858 2130.76 847.211 2127.99 842.114C2125.23 837.018 2121.36 832.599 2116.68 829.177L2048.54 784.822L2016.9 659.684C2016.83 659.313 2016.83 658.932 2016.9 658.562C2016.08 655.944 2015.55 653.251 2014.95 650.558C2013.89 645.096 2013.14 639.577 2012.71 634.028C2012.71 631.709 2012.71 629.465 2012.71 627.371C2012.59 626.027 2012.59 624.676 2012.71 623.332C2012.63 621.812 2012.63 620.289 2012.71 618.769C2012.99 615.066 2013.77 611.418 2015.03 607.923C2015.49 606.53 2016.11 605.198 2016.9 603.959C2017.21 603.183 2017.67 602.473 2018.25 601.865L2019.97 599.546L2020.49 599.022C2021.47 598.059 2022.58 597.229 2023.78 596.554C2030.06 592.739 2038.74 593.637 2049.44 599.77C2080.33 617.647 2113.39 673.821 2123.34 725.432L2123.86 728.274L2149.82 862.912L2249.15 1379.02C2253.04 1400.41 2251.09 1415.45 2244.36 1420.24Z" fill="#02D767"/>
<path opacity="0.1" d="M2244.36 1420.24C2243.71 1420.78 2242.94 1421.17 2242.12 1421.36C2241.3 1421.48 2240.47 1421.48 2239.65 1421.36C2237 1421.29 2234.42 1420.51 2232.17 1419.11C2216.69 1410.36 2197.84 1378.2 2190.28 1347.68L2072.62 881.088L2088.85 890.437C2090.62 891.731 2092.73 892.489 2094.92 892.622C2097.1 892.754 2099.28 892.256 2101.2 891.186L2127.15 876.226C2129.07 874.988 2130.6 873.24 2131.58 871.179C2132.56 869.118 2132.94 866.824 2132.69 864.557V858.648C2132.37 852.858 2130.76 847.211 2127.99 842.114C2125.23 837.018 2121.36 832.599 2116.68 829.177L2048.54 784.822L2016.9 659.684C2016.83 659.313 2016.83 658.932 2016.9 658.562C2016.08 655.944 2015.55 653.251 2014.95 650.558C2013.89 645.096 2013.14 639.577 2012.71 634.028C2012.71 631.709 2012.71 629.465 2012.71 627.371C2012.59 626.027 2012.59 624.676 2012.71 623.332C2012.63 621.812 2012.63 620.289 2012.71 618.769C2012.99 615.066 2013.77 611.418 2015.03 607.923C2015.49 606.53 2016.11 605.198 2016.9 603.959C2017.21 603.183 2017.67 602.473 2018.25 601.865L2019.97 599.546L2020.49 599.022C2021.47 598.059 2022.58 597.229 2023.78 596.554C2030.06 592.739 2038.74 593.637 2049.44 599.77C2080.33 617.647 2113.39 673.821 2123.34 725.432L2123.86 728.274L2149.82 862.912L2249.15 1379.02C2253.04 1400.41 2251.09 1415.45 2244.36 1420.24Z" fill="black"/>
<path d="M2223.64 1362.79C2227.58 1365.35 2230.86 1368.81 2233.21 1372.88C2235.56 1376.95 2236.92 1381.51 2237.18 1386.2C2237.18 1394.8 2231.12 1398.32 2223.64 1393.68C2219.72 1391.11 2216.46 1387.65 2214.12 1383.58C2211.78 1379.51 2210.43 1374.95 2210.18 1370.27C2210.18 1361.97 2216.24 1358.45 2223.64 1362.79Z" fill="#37474F"/>
<path d="M2351.47 1369.67C2349.16 1367.98 2346.43 1366.94 2343.58 1366.65C2340.73 1366.36 2337.85 1366.84 2335.24 1368.03L2180.56 1457.04C2178.24 1458.73 2176.41 1461.01 2175.26 1463.63C2174.1 1466.26 2173.66 1469.15 2173.97 1472C2174.41 1480.04 2176.74 1487.87 2180.77 1494.85C2184.8 1501.83 2190.41 1507.76 2197.16 1512.17C2199.5 1513.86 2202.26 1514.9 2205.14 1515.18C2208.02 1515.46 2210.92 1514.96 2213.54 1513.74L2368.23 1424.43C2370.5 1422.71 2372.29 1420.42 2373.42 1417.8C2374.55 1415.18 2374.98 1412.3 2374.66 1409.47C2374.16 1401.49 2371.81 1393.73 2367.78 1386.82C2363.75 1379.91 2358.17 1374.04 2351.47 1369.67V1369.67Z" fill="#F0F0F0"/>
<path d="M2197.16 1458.76C2203.93 1463.14 2209.57 1469.07 2213.61 1476.05C2217.65 1483.03 2219.99 1490.87 2220.42 1498.92C2220.42 1513.88 2210.03 1519.72 2197.16 1512.31C2190.41 1507.91 2184.8 1501.98 2180.77 1495C2176.74 1488.02 2174.41 1480.19 2173.97 1472.15C2173.97 1457.04 2184.37 1451.35 2197.16 1458.76Z" fill="#E0E0E0"/>
<path d="M2244.51 1016.92L2229.55 1006.97L2220.5 1012.13V1043.7L2235.46 1051.93C2236.52 1052.71 2237.77 1053.2 2239.09 1053.35C2240.4 1053.49 2241.73 1053.29 2242.94 1052.75L2251.99 1047.59C2253.1 1046.81 2253.98 1045.75 2254.53 1044.51C2255.09 1043.27 2255.29 1041.9 2255.13 1040.56V1036.29C2254.9 1032.48 2253.83 1028.77 2251.99 1025.42C2250.15 1022.07 2247.6 1019.17 2244.51 1016.92V1016.92Z" fill="#02D767"/>
<path d="M2235.46 1022.08L2220.5 1012.13V1043.7L2235.46 1051.93C2241.44 1055.44 2246.3 1052.68 2246.3 1045.64V1041.46C2246.05 1037.62 2244.94 1033.9 2243.06 1030.55C2241.19 1027.2 2238.59 1024.31 2235.46 1022.08V1022.08Z" fill="#02D767"/>
<path opacity="0.1" d="M2235.46 1022.08L2220.5 1012.13V1043.7L2235.46 1051.93C2241.44 1055.44 2246.3 1052.68 2246.3 1045.64V1041.46C2246.05 1037.62 2244.94 1033.9 2243.06 1030.55C2241.19 1027.2 2238.59 1024.31 2235.46 1022.08V1022.08Z" fill="black"/>
<path d="M2232.92 1028.97C2234.78 1030.18 2236.33 1031.82 2237.45 1033.74C2238.57 1035.66 2239.22 1037.82 2239.35 1040.04C2239.35 1044.15 2236.43 1045.8 2232.92 1043.71C2231.06 1042.49 2229.51 1040.86 2228.41 1038.93C2227.3 1037.01 2226.67 1034.85 2226.56 1032.64C2226.56 1028.6 2229.4 1026.95 2232.92 1028.97Z" fill="#37474F"/>
<path d="M2298.74 1412.69C2299.46 1412.18 2300.04 1411.49 2300.41 1410.69C2300.78 1409.89 2300.92 1409 2300.83 1408.12L2197.24 877.053C2196.98 876.218 2196.5 875.466 2195.86 874.875C2195.22 874.283 2194.43 873.873 2193.57 873.687C2191.21 872.996 2188.71 872.88 2186.29 873.349C2183.87 873.817 2181.6 874.856 2179.66 876.38C2178.93 876.884 2178.36 877.573 2177.99 878.375C2177.62 879.178 2177.47 880.064 2177.57 880.943C2177.57 881.765 2281.01 1411.11 2281.24 1412.01C2281.49 1412.84 2281.95 1413.58 2282.58 1414.17C2283.21 1414.77 2283.99 1415.18 2284.83 1415.38C2287.19 1416.05 2289.69 1416.16 2292.1 1415.69C2294.52 1415.22 2296.79 1414.19 2298.74 1412.69Z" fill="#455A64"/>
<path d="M2195.14 881.763C2193.2 883.278 2190.93 884.317 2188.51 884.798C2186.1 885.278 2183.6 885.187 2181.23 884.53C2176.89 883.034 2176.22 879.444 2179.66 876.452C2181.6 874.928 2183.87 873.889 2186.29 873.421C2188.71 872.952 2191.21 873.069 2193.57 873.759C2197.84 875.181 2198.58 878.771 2195.14 881.763Z" fill="#37474F"/>
<path d="M1291.88 1057.09C1291.26 1056.48 1290.81 1055.72 1290.59 1054.87C1290.36 1054.03 1290.37 1053.14 1290.61 1052.31C1290.61 1051.48 1447.68 640.39 1448.28 639.567C1448.67 638.798 1449.26 638.144 1449.98 637.672C1450.7 637.199 1451.53 636.924 1452.39 636.874C1454.85 636.603 1457.34 636.915 1459.65 637.786C1461.96 638.657 1464.04 640.062 1465.71 641.886C1466.33 642.512 1466.77 643.292 1467 644.146C1467.22 644.999 1467.22 645.897 1466.98 646.747C1466.98 647.57 1309.9 1058.66 1309.3 1059.49C1308.9 1060.24 1308.31 1060.88 1307.59 1061.34C1306.87 1061.8 1306.04 1062.06 1305.19 1062.1C1302.73 1062.38 1300.25 1062.06 1297.93 1061.19C1295.62 1060.32 1293.55 1058.92 1291.88 1057.09V1057.09Z" fill="#E0E0E0"/>
<path d="M1449.48 644.504C1451.15 646.322 1453.23 647.728 1455.54 648.611C1457.85 649.493 1460.33 649.828 1462.79 649.59C1467.28 648.842 1468.55 645.401 1465.71 642.11C1464.04 640.286 1461.96 638.882 1459.65 638.011C1457.34 637.14 1454.85 636.828 1452.39 637.099C1447.91 637.622 1446.63 641.063 1449.48 644.504Z" fill="#37474F"/>
<path d="M2207.03 1038.69L2191.7 1028.67L2182.65 1033.83V1065.39L2197.61 1073.62C2198.67 1074.41 2199.93 1074.9 2201.24 1075.04C2202.55 1075.19 2203.88 1074.98 2205.09 1074.44L2214.14 1069.28C2215.25 1068.51 2216.13 1067.44 2216.69 1066.2C2217.24 1064.96 2217.45 1063.6 2217.28 1062.25V1057.99C2217.09 1054.22 2216.08 1050.53 2214.31 1047.2C2212.54 1043.86 2210.05 1040.96 2207.03 1038.69V1038.69Z" fill="#02D767"/>
<path d="M2197.98 1043.85L2182.65 1033.83V1065.4L2197.61 1073.62C2203.59 1077.14 2208.46 1074.37 2208.46 1067.41V1063.15C2208.24 1059.36 2207.19 1055.67 2205.38 1052.33C2203.57 1048.99 2201.05 1046.1 2197.98 1043.85V1043.85Z" fill="#02D767"/>
<path opacity="0.1" d="M2197.98 1043.85L2182.65 1033.83V1065.4L2197.61 1073.62C2203.59 1077.14 2208.46 1074.37 2208.46 1067.41V1063.15C2208.24 1059.36 2207.19 1055.67 2205.38 1052.33C2203.57 1048.99 2201.05 1046.1 2197.98 1043.85V1043.85Z" fill="black"/>
<path d="M2195.44 1050.66C2197.29 1051.88 2198.82 1053.52 2199.93 1055.44C2201.03 1057.37 2201.67 1059.52 2201.8 1061.73C2201.8 1065.84 2198.96 1067.49 2195.44 1065.47C2193.6 1064.24 2192.06 1062.6 2190.96 1060.68C2189.85 1058.76 2189.21 1056.61 2189.08 1054.4C2189.08 1050.28 2191.93 1048.64 2195.44 1050.66Z" fill="#37474F"/>
<path d="M2023.26 684.746C2010.02 697.911 2000.14 712.796 1999.85 727.98C1999.55 743.164 2008.6 756.478 2026.77 767.922C2046.22 780.339 2075.92 790.885 2107.33 802.105C2171.43 824.993 2244.06 850.949 2257.75 900.54C2269.94 945.419 2238.23 976.61 2223.87 981.397L2224.76 986.109C2243.91 980.126 2274.36 943.998 2262.16 899.343C2247.88 846.984 2173.98 820.954 2108.83 797.692C2077.64 786.622 2048.24 776.075 2029.17 764.033C2012.49 753.486 2004.18 741.593 2004.48 728.129C2004.78 714.666 2012.93 701.95 2024.38 690.132" fill="#37474F"/>
<path d="M1003.45 1428.99C1008.55 1431.57 1014.19 1432.92 1019.91 1432.92C1025.62 1432.92 1031.26 1431.57 1036.36 1428.99L1370.41 1235.49C1375.2 1232.33 1379.19 1228.09 1382.06 1223.12C1384.93 1218.14 1386.6 1212.57 1386.94 1206.84V872.865C1386.94 808.093 1369.88 744.463 1337.49 688.372C1305.1 632.281 1258.51 585.705 1202.42 553.325L1060.3 471.047L692.289 683.325V1249.4L1003.45 1428.99Z" fill="#455A64"/>
<path d="M1036.36 1428.99L1117.37 1380.67L1198.38 1332.87L1361.21 1237.8C1364.5 1235.86 1368.69 1233.91 1371.09 1231.89C1374.03 1229.68 1376.56 1226.97 1378.57 1223.89C1382.81 1217.74 1384.84 1210.33 1384.33 1202.87V1155.67V1061.43L1385 967.182L1386.2 872.861L1387.32 967.182L1387.99 1061.43V1155.67V1202.72C1388.25 1206.85 1387.85 1210.99 1386.79 1214.99C1385.59 1218.98 1383.83 1222.78 1381.56 1226.28C1379.27 1229.82 1376.42 1232.95 1373.11 1235.56C1369.44 1238.18 1366.22 1239.67 1362.78 1241.77L1199.35 1335.86L1117.07 1382.54L1036.36 1428.99Z" fill="#37474F"/>
<path d="M692.289 683.326V1249.4L1003.45 1428.92C1012.5 1434.15 1019.91 1429.89 1019.91 1419.42V1085.52C1019.92 1020.74 1002.87 957.108 970.475 901.014C938.081 844.92 891.487 798.346 835.379 765.979L692.289 683.326Z" fill="#37474F"/>
<path d="M730.364 922.005V749.221L816.457 798.812C866.74 827.869 908.492 869.644 937.52 919.942C966.549 970.241 981.833 1027.29 981.837 1085.37V1165.33C981.845 1171.76 980.158 1178.09 976.945 1183.67C973.731 1189.25 969.105 1193.88 963.532 1197.1C957.959 1200.32 951.636 1202.02 945.198 1202.02C938.76 1202.03 932.435 1200.33 926.86 1197.11L792.223 1119.25L758.937 1048.56C740.212 1009 730.456 965.781 730.364 922.005V922.005Z" fill="#02D767"/>
<path opacity="0.35" d="M730.364 922.005V749.221L816.457 798.812C866.74 827.869 908.492 869.644 937.52 919.942C966.549 970.241 981.833 1027.29 981.837 1085.37V1165.33C981.845 1171.76 980.158 1178.09 976.945 1183.67C973.731 1189.25 969.105 1193.88 963.532 1197.1C957.959 1200.32 951.636 1202.02 945.198 1202.02C938.76 1202.03 932.435 1200.33 926.86 1197.11L792.223 1119.25L758.937 1048.56C740.212 1009 730.456 965.781 730.364 922.005V922.005Z" fill="white"/>
<path d="M818.552 1171.98L792.073 1155.67V767.246L818.552 783.477V1171.98Z" fill="#37474F"/>
<path d="M1348.57 1041.75C1348.27 1047.47 1346.62 1053.04 1343.76 1058C1340.9 1062.97 1336.91 1067.19 1332.12 1070.33L1074.36 1219.47C1065.31 1224.79 1057.91 1220.52 1057.91 1209.97V1085.51C1057.8 987.548 1022.34 892.916 958.052 819.003C956.465 817.336 955.284 815.326 954.601 813.129C953.917 810.932 953.75 808.607 954.112 806.334C954.474 804.062 955.355 801.904 956.687 800.027C958.019 798.151 959.766 796.607 961.792 795.516L1228.9 642.478C1233.67 639.902 1239.14 638.905 1244.51 639.631C1249.89 640.357 1254.9 642.768 1258.82 646.517C1316.38 707.835 1348.47 788.753 1348.57 872.858V1041.75Z" fill="#02D767"/>
<path opacity="0.6" d="M1348.57 1041.75C1348.27 1047.47 1346.62 1053.04 1343.76 1058C1340.9 1062.97 1336.91 1067.19 1332.12 1070.33L1074.36 1219.47C1065.31 1224.79 1057.91 1220.52 1057.91 1209.97V1085.51C1057.8 987.548 1022.34 892.916 958.052 819.003C956.465 817.336 955.284 815.326 954.601 813.129C953.917 810.932 953.75 808.607 954.112 806.334C954.474 804.062 955.355 801.904 956.687 800.027C958.019 798.151 959.766 796.607 961.792 795.516L1228.9 642.478C1233.67 639.902 1239.14 638.905 1244.51 639.631C1249.89 640.357 1254.9 642.768 1258.82 646.517C1316.38 707.835 1348.47 788.753 1348.57 872.858V1041.75Z" fill="white"/>
<path opacity="0.4" d="M1314.17 726.483L1012.8 900.465C1006.94 888.9 1000.44 877.664 993.354 866.805L1294.72 692.6C1301.86 703.501 1308.36 714.815 1314.17 726.483V726.483Z" fill="white"/>
<path opacity="0.4" d="M1328.98 762.08L1028.81 935.463C1026.49 929.629 1023.87 923.869 1021.33 917.96L1322.17 744.203C1324.41 750.112 1326.88 755.946 1328.98 762.08Z" fill="white"/>
<path d="M1467.65 606.581C1464.44 604.26 1460.68 602.83 1456.73 602.436C1452.79 602.041 1448.82 602.698 1445.21 604.337L1425.17 615.856C1421.93 618.182 1419.37 621.327 1417.76 624.969C1416.14 628.61 1415.52 632.616 1415.97 636.575C1416.56 647.835 1419.82 658.793 1425.46 668.556C1431.1 678.318 1438.97 686.608 1448.43 692.749C1451.69 695.153 1455.53 696.631 1459.56 697.026C1463.59 697.421 1467.65 696.719 1471.32 694.993C1474.61 693.048 1487.92 685.569 1491.36 683.399C1494.55 681.069 1497.06 677.941 1498.65 674.329C1500.24 670.718 1500.85 666.751 1500.41 662.83C1499.77 651.536 1496.47 640.555 1490.77 630.78C1485.08 621.005 1477.16 612.714 1467.65 606.581V606.581Z" fill="#455A64"/>
<path d="M1447.83 617.798C1457.28 623.964 1465.14 632.27 1470.78 642.043C1476.42 651.816 1479.68 662.78 1480.29 674.047C1480.29 694.766 1465.78 703.144 1447.83 692.747C1438.37 686.606 1430.5 678.316 1424.86 668.553C1419.22 658.791 1415.97 647.832 1415.37 636.573C1415.29 615.854 1430.25 607.476 1447.83 617.798Z" fill="#37474F"/>
<path d="M1447.83 638.07C1452.19 640.901 1455.81 644.721 1458.41 649.218C1461.01 653.716 1462.51 658.763 1462.79 663.95C1462.79 673.45 1456.06 677.339 1447.83 672.552C1443.48 669.716 1439.86 665.896 1437.26 661.399C1434.66 656.903 1433.16 651.858 1432.87 646.672C1432.87 637.172 1439.6 633.283 1447.83 638.07Z" fill="#02D767"/>
<path d="M1661.05 1998.17L1765.74 1937.41C1767.89 1936.27 1770.29 1935.68 1772.72 1935.71C1775.18 1935.68 1777.6 1936.27 1779.77 1937.41L1884.4 1998.17C1885.2 1998.53 1885.88 1999.1 1886.4 1999.82C1886.91 2000.53 1887.22 2001.36 1887.31 2002.24V2009.71C1887.24 2010.59 1886.92 2011.43 1886.41 2012.15C1885.9 2012.86 1885.2 2013.43 1884.4 2013.78L1779.95 2074.3C1777.79 2075.47 1775.36 2076.06 1772.91 2076C1770.47 2076.06 1768.06 2075.47 1765.92 2074.3L1661.23 2013.9C1660.43 2013.52 1659.75 2012.93 1659.26 2012.19C1658.77 2011.45 1658.48 2010.6 1658.44 2009.71V2002.12C1658.52 2001.29 1658.8 2000.5 1659.25 1999.82C1659.71 1999.13 1660.32 1998.56 1661.05 1998.17V1998.17Z" fill="#02D767"/>
<path opacity="0.1" d="M1658.44 2002.24V2009.71C1658.51 2010.59 1658.83 2011.43 1659.34 2012.15C1659.85 2012.86 1660.55 2013.43 1661.35 2013.78L1766.04 2074.18C1768.18 2075.35 1770.59 2075.94 1773.03 2075.88V1936.14C1770.59 1936.11 1768.19 1936.69 1766.04 1937.84L1661.35 1998.6C1660.61 1998.92 1659.96 1999.43 1659.45 2000.06C1658.94 2000.69 1658.59 2001.44 1658.44 2002.24V2002.24Z" fill="black"/>
<path opacity="0.3" d="M1772.72 1936.01V2075.76C1775.18 2075.81 1777.61 2075.23 1779.77 2074.05L1884.4 2013.66C1885.2 2013.31 1885.9 2012.74 1886.41 2012.02C1886.92 2011.31 1887.24 2010.47 1887.31 2009.59V2002C1887.22 2001.12 1886.91 2000.29 1886.4 1999.57C1885.88 1998.86 1885.19 1998.29 1884.4 1997.92L1779.77 1937.17C1777.55 1936.21 1775.13 1935.81 1772.72 1936.01V1936.01Z" fill="black"/>
<path d="M1779.95 2066.7L1884.58 2006.31C1885.42 2006.01 1886.15 2005.46 1886.67 2004.73C1887.19 2004 1887.46 2003.13 1887.46 2002.24C1887.46 2001.34 1887.19 2000.47 1886.67 1999.74C1886.15 1999.01 1885.42 1998.46 1884.58 1998.17L1779.95 1937.41C1777.76 1936.33 1775.35 1935.77 1772.9 1935.77C1770.46 1935.77 1768.05 1936.33 1765.86 1937.41L1661.23 1998.17C1660.39 1998.46 1659.66 1999.01 1659.14 1999.74C1658.62 2000.47 1658.34 2001.34 1658.34 2002.24C1658.34 2003.13 1658.62 2004 1659.14 2004.73C1659.66 2005.46 1660.39 2006.01 1661.23 2006.31L1765.86 2066.7C1768.04 2067.81 1770.45 2068.39 1772.9 2068.39C1775.35 2068.39 1777.77 2067.81 1779.95 2066.7V2066.7Z" fill="#02D767"/>
<path opacity="0.5" d="M1779.95 2066.7L1884.58 2006.31C1885.42 2006.01 1886.15 2005.46 1886.67 2004.73C1887.19 2004 1887.46 2003.13 1887.46 2002.24C1887.46 2001.34 1887.19 2000.47 1886.67 1999.74C1886.15 1999.01 1885.42 1998.46 1884.58 1998.17L1779.95 1937.41C1777.76 1936.33 1775.35 1935.77 1772.9 1935.77C1770.46 1935.77 1768.05 1936.33 1765.86 1937.41L1661.23 1998.17C1660.39 1998.46 1659.66 1999.01 1659.14 1999.74C1658.62 2000.47 1658.34 2001.34 1658.34 2002.24C1658.34 2003.13 1658.62 2004 1659.14 2004.73C1659.66 2005.46 1660.39 2006.01 1661.23 2006.31L1765.86 2066.7C1768.04 2067.81 1770.45 2068.39 1772.9 2068.39C1775.35 2068.39 1777.77 2067.81 1779.95 2066.7V2066.7Z" fill="white"/>
<path opacity="0.05" d="M1772.72 1936.07C1775.17 1936.02 1777.59 1936.59 1779.77 1937.71L1884.4 1998.47C1885.24 1998.77 1885.97 1999.32 1886.49 2000.05C1887 2000.77 1887.28 2001.65 1887.28 2002.54C1887.28 2003.43 1887 2004.31 1886.49 2005.04C1885.97 2005.76 1885.24 2006.32 1884.4 2006.61L1779.95 2066.7C1777.79 2067.87 1775.36 2068.46 1772.9 2068.4L1772.72 1936.07Z" fill="black"/>
<path d="M1708.14 1994.65L1754.43 1855.51C1755.43 1853.19 1757.22 1851.3 1759.48 1850.16C1763.56 1848.07 1768.07 1846.97 1772.66 1846.97C1777.25 1846.97 1781.77 1848.07 1785.85 1850.16C1788.1 1851.3 1789.89 1853.19 1790.89 1855.51V1855.51L1837.19 1994.71C1841.5 2006.86 1835.48 2019.86 1819.26 2029.22C1804.8 2036.54 1788.81 2040.36 1772.6 2040.36C1756.39 2040.36 1740.4 2036.54 1725.94 2029.22C1709.84 2019.8 1703.88 2006.74 1708.14 1994.65Z" fill="#02D767"/>
<path d="M1741.13 1895.36L1747.69 1875.55C1747.17 1877.32 1747.16 1879.19 1747.67 1880.95C1748.18 1882.72 1749.17 1884.3 1750.55 1885.52C1751.78 1886.74 1753.17 1887.8 1754.68 1888.68C1760.26 1891.49 1766.42 1892.96 1772.66 1892.96C1778.91 1892.96 1785.07 1891.49 1790.65 1888.68C1792.15 1887.8 1793.54 1886.74 1794.78 1885.52C1796.15 1884.3 1797.15 1882.72 1797.66 1880.95C1798.16 1879.19 1798.15 1877.32 1797.63 1875.55L1804.26 1895.36C1804.8 1897.02 1804.95 1898.79 1804.69 1900.51C1804.44 1902.24 1803.79 1903.89 1802.8 1905.33C1800.9 1908.11 1798.36 1910.41 1795.39 1912.01C1792.86 1913.39 1790.19 1914.49 1787.43 1915.29C1777.77 1918.02 1767.55 1918.02 1757.9 1915.29C1755.13 1914.49 1752.46 1913.39 1749.94 1912.01C1746.97 1910.41 1744.43 1908.11 1742.53 1905.33C1741.54 1903.88 1740.91 1902.24 1740.66 1900.51C1740.42 1898.78 1740.58 1897.02 1741.13 1895.36V1895.36Z" fill="#FAFAFA"/>
<path d="M1714.58 1975.08L1721.14 1955.27C1720.09 1958.49 1719.97 1961.94 1720.77 1965.23C1721.75 1969 1723.68 1972.45 1726.36 1975.26C1729.07 1978.09 1732.18 1980.51 1735.6 1982.43C1747.09 1988.24 1759.78 1991.27 1772.66 1991.27C1785.54 1991.27 1798.23 1988.24 1809.72 1982.43C1813.14 1980.51 1816.25 1978.09 1818.96 1975.26C1821.65 1972.45 1823.57 1969 1824.55 1965.23C1825.37 1961.96 1825.24 1958.53 1824.18 1955.33L1830.75 1975.08C1831.83 1978.28 1832.09 1981.71 1831.48 1985.04C1830.32 1989.51 1828.2 1993.67 1825.26 1997.23C1822.32 2000.79 1818.63 2003.66 1814.46 2005.64C1801.49 2012.23 1787.15 2015.66 1772.6 2015.66C1758.05 2015.66 1743.71 2012.23 1730.74 2005.64C1726.57 2003.66 1722.88 2000.79 1719.94 1997.23C1717 1993.67 1714.88 1989.51 1713.73 1985.04C1713.17 1981.7 1713.46 1978.27 1714.58 1975.08V1975.08Z" fill="#FAFAFA"/>
<path d="M1727.88 1935.23L1734.51 1915.42C1733.43 1918.7 1733.64 1922.26 1735.11 1925.38C1737.27 1929.63 1740.69 1933.11 1744.89 1935.35V1935.35C1753.42 1939.68 1762.85 1941.94 1772.42 1941.94C1781.98 1941.94 1791.41 1939.68 1799.94 1935.35H1800.25C1804.59 1933.13 1808.11 1929.6 1810.33 1925.26C1811.8 1922.14 1812.02 1918.57 1810.94 1915.3L1817.56 1935.1C1818.62 1938.36 1818.62 1941.87 1817.56 1945.13C1816.13 1949.05 1813.63 1952.48 1810.33 1955.03C1808.69 1956.43 1806.92 1957.67 1805.05 1958.74C1799.56 1961.7 1793.63 1963.76 1787.49 1964.81C1777.73 1966.64 1767.72 1966.64 1757.96 1964.81C1751.81 1963.76 1745.88 1961.7 1740.4 1958.74C1738.53 1957.67 1736.76 1956.43 1735.11 1955.03C1731.82 1952.48 1729.31 1949.05 1727.88 1945.13C1726.82 1941.91 1726.82 1938.44 1727.88 1935.23V1935.23Z" fill="#FAFAFA"/>
<path opacity="0.1" d="M1772.72 1846.76C1777.32 1846.66 1781.86 1847.75 1785.91 1849.92C1788.17 1851.06 1789.95 1852.95 1790.95 1855.27V1855.27L1837.25 1994.47C1841.56 2006.62 1835.55 2019.62 1819.33 2028.98C1804.97 2036.61 1788.91 2040.45 1772.66 2040.16H1773.09C1783.14 2038.4 1792.11 2032.79 1798.09 2024.51C1804.07 2016.24 1806.59 2005.96 1805.11 1995.87L1786.03 1857.82L1772.72 1846.76Z" fill="black"/>
<path d="M1786.03 1865.11C1787.62 1864.57 1789 1863.55 1789.97 1862.18C1790.95 1860.82 1791.47 1859.19 1791.47 1857.51C1791.47 1855.84 1790.95 1854.2 1789.97 1852.84C1789 1851.48 1787.62 1850.46 1786.03 1849.92C1781.95 1847.82 1777.43 1846.73 1772.85 1846.73C1768.26 1846.73 1763.74 1847.82 1759.66 1849.92C1758.07 1850.46 1756.7 1851.48 1755.72 1852.84C1754.74 1854.2 1754.22 1855.84 1754.22 1857.51C1754.22 1859.19 1754.74 1860.82 1755.72 1862.18C1756.7 1863.55 1758.07 1864.57 1759.66 1865.11C1763.74 1867.2 1768.26 1868.3 1772.85 1868.3C1777.43 1868.3 1781.95 1867.2 1786.03 1865.11V1865.11Z" fill="#02D767"/>
<path opacity="0.5" d="M1786.03 1865.11C1787.62 1864.57 1789 1863.55 1789.97 1862.18C1790.95 1860.82 1791.47 1859.19 1791.47 1857.51C1791.47 1855.84 1790.95 1854.2 1789.97 1852.84C1789 1851.48 1787.62 1850.46 1786.03 1849.92C1781.95 1847.82 1777.43 1846.73 1772.85 1846.73C1768.26 1846.73 1763.74 1847.82 1759.66 1849.92C1758.07 1850.46 1756.7 1851.48 1755.72 1852.84C1754.74 1854.2 1754.22 1855.84 1754.22 1857.51C1754.22 1859.19 1754.74 1860.82 1755.72 1862.18C1756.7 1863.55 1758.07 1864.57 1759.66 1865.11C1763.74 1867.2 1768.26 1868.3 1772.85 1868.3C1777.43 1868.3 1781.95 1867.2 1786.03 1865.11V1865.11Z" fill="white"/>
<path d="M1496 1775.12L1391.31 1714.67C1389.17 1713.5 1386.76 1712.91 1384.32 1712.97C1381.86 1712.91 1379.44 1713.5 1377.27 1714.67L1272.65 1775.12C1271.84 1775.47 1271.14 1776.04 1270.63 1776.75C1270.11 1777.47 1269.8 1778.31 1269.73 1779.19V1786.61C1269.8 1787.48 1270.11 1788.33 1270.63 1789.05C1271.14 1789.76 1271.84 1790.33 1272.65 1790.68L1377.27 1851.07C1379.44 1852.24 1381.86 1852.83 1384.32 1852.77C1386.76 1852.83 1389.17 1852.24 1391.31 1851.07L1496 1790.68C1496.79 1790.31 1497.48 1789.74 1497.99 1789.03C1498.51 1788.31 1498.82 1787.48 1498.91 1786.61V1779.01C1498.79 1778.17 1498.46 1777.37 1497.95 1776.69C1497.44 1776.01 1496.77 1775.47 1496 1775.12V1775.12Z" fill="#02D767"/>
<path opacity="0.1" d="M1498.92 1779.19V1786.6C1498.83 1787.48 1498.51 1788.31 1498 1789.03C1497.49 1789.74 1496.8 1790.31 1496 1790.67L1391.31 1851.07C1389.17 1852.24 1386.76 1852.83 1384.33 1852.77V1713.03C1386.76 1712.97 1389.17 1713.55 1391.31 1714.73L1496 1775.18C1496.79 1775.54 1497.47 1776.1 1497.98 1776.8C1498.49 1777.51 1498.82 1778.33 1498.92 1779.19V1779.19Z" fill="black"/>
<path opacity="0.3" d="M1384.32 1712.96V1852.71C1381.86 1852.76 1379.44 1852.18 1377.27 1851.01L1272.65 1790.61C1271.84 1790.26 1271.14 1789.7 1270.63 1788.98C1270.11 1788.26 1269.8 1787.42 1269.73 1786.54V1778.95C1269.8 1778.07 1270.11 1777.22 1270.63 1776.51C1271.14 1775.79 1271.84 1775.23 1272.65 1774.88L1377.27 1714.42C1379.46 1713.33 1381.89 1712.83 1384.32 1712.96Z" fill="black"/>
<path d="M1377.28 1843.65L1272.59 1783.26C1271.75 1782.97 1271.01 1782.41 1270.5 1781.69C1269.98 1780.96 1269.7 1780.08 1269.7 1779.19C1269.7 1778.3 1269.98 1777.42 1270.5 1776.69C1271.01 1775.97 1271.75 1775.42 1272.59 1775.12L1377.28 1714.66C1379.46 1713.56 1381.87 1712.98 1384.32 1712.98C1386.77 1712.98 1389.19 1713.56 1391.37 1714.66L1496 1775.12C1496.84 1775.42 1497.57 1775.97 1498.09 1776.69C1498.61 1777.42 1498.88 1778.3 1498.88 1779.19C1498.88 1780.08 1498.61 1780.96 1498.09 1781.69C1497.57 1782.41 1496.84 1782.97 1496 1783.26L1391.37 1843.65C1389.19 1844.76 1386.77 1845.34 1384.32 1845.34C1381.87 1845.34 1379.46 1844.76 1377.28 1843.65V1843.65Z" fill="#02D767"/>
<path opacity="0.5" d="M1377.28 1843.65L1272.59 1783.26C1271.75 1782.97 1271.01 1782.41 1270.5 1781.69C1269.98 1780.96 1269.7 1780.08 1269.7 1779.19C1269.7 1778.3 1269.98 1777.42 1270.5 1776.69C1271.01 1775.97 1271.75 1775.42 1272.59 1775.12L1377.28 1714.66C1379.46 1713.56 1381.87 1712.98 1384.32 1712.98C1386.77 1712.98 1389.19 1713.56 1391.37 1714.66L1496 1775.12C1496.84 1775.42 1497.57 1775.97 1498.09 1776.69C1498.61 1777.42 1498.88 1778.3 1498.88 1779.19C1498.88 1780.08 1498.61 1780.96 1498.09 1781.69C1497.57 1782.41 1496.84 1782.97 1496 1783.26L1391.37 1843.65C1389.19 1844.76 1386.77 1845.34 1384.32 1845.34C1381.87 1845.34 1379.46 1844.76 1377.28 1843.65V1843.65Z" fill="white"/>
<path opacity="0.05" d="M1384.32 1713.02C1381.87 1712.98 1379.45 1713.54 1377.28 1714.66L1272.59 1775.12C1271.75 1775.41 1271.01 1775.97 1270.5 1776.69C1269.98 1777.42 1269.7 1778.3 1269.7 1779.19C1269.7 1780.08 1269.98 1780.96 1270.5 1781.69C1271.01 1782.41 1271.75 1782.96 1272.59 1783.26L1377.28 1843.65C1379.44 1844.83 1381.87 1845.41 1384.32 1845.36V1713.02Z" fill="black"/>
<path d="M1448.91 1771.54L1402.55 1632.46C1401.55 1630.14 1399.76 1628.25 1397.51 1627.12C1393.43 1625.02 1388.91 1623.93 1384.32 1623.93C1379.74 1623.93 1375.22 1625.02 1371.14 1627.12C1368.88 1628.25 1367.1 1630.14 1366.09 1632.46V1632.46L1319.8 1771.6C1315.54 1783.75 1321.56 1796.81 1338.02 1806.17C1352.48 1813.48 1368.46 1817.3 1384.66 1817.3C1400.86 1817.3 1416.83 1813.48 1431.29 1806.17C1447.21 1796.75 1453.16 1783.69 1448.91 1771.54Z" fill="#02D767"/>
<path d="M1415.92 1672.32L1409.36 1652.51C1409.88 1654.27 1409.88 1656.15 1409.36 1657.92C1408.85 1659.69 1407.83 1661.27 1406.44 1662.47C1405.24 1663.71 1403.87 1664.78 1402.37 1665.63C1396.79 1668.45 1390.63 1669.91 1384.39 1669.91C1378.14 1669.91 1371.98 1668.45 1366.4 1665.63C1364.89 1664.77 1363.49 1663.71 1362.27 1662.47C1360.9 1661.25 1359.9 1659.67 1359.39 1657.91C1358.89 1656.14 1358.89 1654.27 1359.41 1652.51L1352.79 1672.32C1352.25 1673.98 1352.1 1675.74 1352.36 1677.47C1352.61 1679.2 1353.26 1680.84 1354.25 1682.28C1356.14 1685.05 1358.66 1687.34 1361.6 1688.96C1364.16 1690.31 1366.85 1691.41 1369.62 1692.24C1379.27 1694.98 1389.5 1694.98 1399.15 1692.24C1401.91 1691.42 1404.57 1690.32 1407.11 1688.96C1410.06 1687.34 1412.6 1685.05 1414.52 1682.28C1415.49 1680.83 1416.12 1679.18 1416.36 1677.46C1416.6 1675.73 1416.45 1673.97 1415.92 1672.32Z" fill="#FAFAFA"/>
<path d="M1442.47 1752.03L1435.91 1731.92C1436.97 1735.14 1437.12 1738.59 1436.33 1741.88C1435.36 1745.65 1433.43 1749.1 1430.74 1751.91C1428.02 1754.73 1424.91 1757.14 1421.51 1759.08C1410.01 1764.89 1397.3 1767.92 1384.41 1767.92C1371.53 1767.92 1358.82 1764.89 1347.32 1759.08C1343.93 1757.16 1340.83 1754.74 1338.15 1751.91C1335.46 1749.1 1333.53 1745.65 1332.56 1741.88C1331.63 1738.63 1331.65 1735.17 1332.62 1731.92L1326.54 1751.91C1325.45 1755.11 1325.2 1758.54 1325.81 1761.87C1326.97 1766.34 1329.09 1770.5 1332.03 1774.06C1334.97 1777.62 1338.66 1780.49 1342.83 1782.47C1355.8 1789.06 1370.14 1792.5 1384.69 1792.5C1399.24 1792.5 1413.58 1789.06 1426.55 1782.47C1430.72 1780.49 1434.4 1777.61 1437.34 1774.05C1440.27 1770.5 1442.4 1766.34 1443.56 1761.87C1444.02 1758.55 1443.65 1755.17 1442.47 1752.03V1752.03Z" fill="#FAFAFA"/>
<path d="M1429.16 1712.18L1422.54 1692.37C1423.62 1695.65 1423.4 1699.21 1421.93 1702.33C1419.77 1706.58 1416.36 1710.06 1412.15 1712.3H1411.85C1403.32 1716.63 1393.89 1718.89 1384.32 1718.89C1374.76 1718.89 1365.33 1716.63 1356.8 1712.3V1712.3C1352.58 1710.08 1349.15 1706.6 1347.02 1702.33C1345.53 1699.22 1345.29 1695.65 1346.35 1692.37L1339.79 1712.18C1338.66 1715.42 1338.66 1718.95 1339.79 1722.2C1341.23 1726.11 1343.74 1729.54 1347.02 1732.11C1348.67 1733.49 1350.44 1734.73 1352.3 1735.81C1357.77 1738.81 1363.71 1740.87 1369.86 1741.89C1379.62 1743.77 1389.64 1743.77 1399.39 1741.89C1405.54 1740.85 1411.47 1738.79 1416.95 1735.81C1418.8 1734.7 1420.56 1733.47 1422.24 1732.11C1425.52 1729.54 1428.02 1726.11 1429.47 1722.2C1430.46 1718.92 1430.35 1715.4 1429.16 1712.18V1712.18Z" fill="#FAFAFA"/>
<path opacity="0.1" d="M1384.32 1623.71C1379.73 1623.61 1375.19 1624.7 1371.14 1626.87C1368.88 1628 1367.1 1629.9 1366.09 1632.22V1632.22L1319.8 1771.35C1315.54 1783.5 1321.56 1796.57 1338.02 1805.92C1352.38 1813.55 1368.44 1817.4 1384.69 1817.1H1384.26C1374.21 1815.34 1365.24 1809.73 1359.26 1801.46C1353.28 1793.19 1350.76 1782.91 1352.24 1772.81L1371.14 1634.71L1384.32 1623.71Z" fill="black"/>
<path d="M1371.14 1642.06C1369.55 1641.52 1368.17 1640.5 1367.2 1639.14C1366.22 1637.78 1365.7 1636.14 1365.7 1634.47C1365.7 1632.79 1366.22 1631.16 1367.2 1629.79C1368.17 1628.43 1369.55 1627.41 1371.14 1626.87C1375.22 1624.78 1379.74 1623.68 1384.32 1623.68C1388.91 1623.68 1393.43 1624.78 1397.51 1626.87C1399.09 1627.41 1400.47 1628.43 1401.45 1629.79C1402.43 1631.16 1402.95 1632.79 1402.95 1634.47C1402.95 1636.14 1402.43 1637.78 1401.45 1639.14C1400.47 1640.5 1399.09 1641.52 1397.51 1642.06C1393.43 1644.16 1388.91 1645.25 1384.32 1645.25C1379.74 1645.25 1375.22 1644.16 1371.14 1642.06V1642.06Z" fill="#02D767"/>
<path opacity="0.5" d="M1371.14 1642.06C1369.55 1641.52 1368.17 1640.5 1367.2 1639.14C1366.22 1637.78 1365.7 1636.14 1365.7 1634.47C1365.7 1632.79 1366.22 1631.16 1367.2 1629.79C1368.17 1628.43 1369.55 1627.41 1371.14 1626.87C1375.22 1624.78 1379.74 1623.68 1384.32 1623.68C1388.91 1623.68 1393.43 1624.78 1397.51 1626.87C1399.09 1627.41 1400.47 1628.43 1401.45 1629.79C1402.43 1631.16 1402.95 1632.79 1402.95 1634.47C1402.95 1636.14 1402.43 1637.78 1401.45 1639.14C1400.47 1640.5 1399.09 1641.52 1397.51 1642.06C1393.43 1644.16 1388.91 1645.25 1384.32 1645.25C1379.74 1645.25 1375.22 1644.16 1371.14 1642.06V1642.06Z" fill="white"/>
<path d="M1887.65 1842.68L1992.34 1781.92C1994.52 1780.8 1996.94 1780.24 1999.39 1780.28C2001.84 1780.25 2004.26 1780.81 2006.44 1781.92L2111.06 1842.68C2111.86 1843.05 2112.54 1843.62 2113.04 1844.33C2113.54 1845.05 2113.85 1845.88 2113.92 1846.75V1854.41C2113.85 1855.27 2113.55 1856.1 2113.04 1856.81C2112.54 1857.51 2111.86 1858.07 2111.06 1858.42L2006.44 1918.87C2004.26 1919.98 2001.84 1920.55 1999.39 1920.51C1996.94 1920.56 1994.52 1920 1992.34 1918.87L1887.65 1858.42C1886.86 1858.07 1886.18 1857.51 1885.67 1856.81C1885.17 1856.1 1884.87 1855.27 1884.8 1854.41V1846.63C1884.89 1845.78 1885.2 1844.97 1885.7 1844.28C1886.2 1843.59 1886.88 1843.04 1887.65 1842.68V1842.68Z" fill="#02D767"/>
<path opacity="0.1" d="M1884.8 1846.64V1854.29C1884.87 1855.16 1885.17 1855.99 1885.67 1856.69C1886.18 1857.4 1886.86 1857.96 1887.65 1858.3L1992.34 1918.76C1994.52 1919.88 1996.94 1920.45 1999.39 1920.4V1780.66C1996.94 1780.61 1994.52 1781.17 1992.34 1782.3L1887.65 1843.05C1886.92 1843.37 1886.28 1843.87 1885.78 1844.49C1885.29 1845.12 1884.95 1845.85 1884.8 1846.64V1846.64Z" fill="black"/>
<path opacity="0.3" d="M1999.39 1780.59V1920.34C2001.84 1920.37 2004.26 1919.81 2006.44 1918.7L2111.07 1858.24C2111.86 1857.89 2112.54 1857.34 2113.05 1856.63C2113.55 1855.93 2113.85 1855.1 2113.92 1854.23V1846.64C2113.85 1845.77 2113.55 1844.93 2113.05 1844.22C2112.54 1843.5 2111.86 1842.93 2111.07 1842.57L2006.44 1781.81C2004.22 1780.84 2001.81 1780.43 1999.39 1780.59V1780.59Z" fill="black"/>
<path d="M2006.38 1911.22L2111.06 1850.83C2111.91 1850.53 2112.64 1849.98 2113.16 1849.25C2113.67 1848.52 2113.95 1847.65 2113.95 1846.76C2113.95 1845.86 2113.67 1844.99 2113.16 1844.26C2112.64 1843.53 2111.91 1842.98 2111.06 1842.69L2006.38 1782.29C2004.2 1781.18 2001.8 1780.61 1999.36 1780.61C1996.92 1780.61 1994.52 1781.18 1992.34 1782.29L1887.66 1842.69C1886.81 1842.98 1886.08 1843.53 1885.56 1844.26C1885.05 1844.99 1884.77 1845.86 1884.77 1846.76C1884.77 1847.65 1885.05 1848.52 1885.56 1849.25C1886.08 1849.98 1886.81 1850.53 1887.66 1850.83L1992.34 1911.22C1994.52 1912.33 1996.92 1912.91 1999.36 1912.91C2001.8 1912.91 2004.2 1912.33 2006.38 1911.22V1911.22Z" fill="#02D767"/>
<path opacity="0.5" d="M2006.38 1911.22L2111.06 1850.83C2111.91 1850.53 2112.64 1849.98 2113.16 1849.25C2113.67 1848.52 2113.95 1847.65 2113.95 1846.76C2113.95 1845.86 2113.67 1844.99 2113.16 1844.26C2112.64 1843.53 2111.91 1842.98 2111.06 1842.69L2006.38 1782.29C2004.2 1781.18 2001.8 1780.61 1999.36 1780.61C1996.92 1780.61 1994.52 1781.18 1992.34 1782.29L1887.66 1842.69C1886.81 1842.98 1886.08 1843.53 1885.56 1844.26C1885.05 1844.99 1884.77 1845.86 1884.77 1846.76C1884.77 1847.65 1885.05 1848.52 1885.56 1849.25C1886.08 1849.98 1886.81 1850.53 1887.66 1850.83L1992.34 1911.22C1994.52 1912.33 1996.92 1912.91 1999.36 1912.91C2001.8 1912.91 2004.2 1912.33 2006.38 1911.22V1911.22Z" fill="white"/>
<path opacity="0.05" d="M1999.39 1780.59C2001.83 1780.54 2004.24 1781.12 2006.38 1782.29L2111.07 1842.68C2111.91 1842.98 2112.64 1843.53 2113.16 1844.26C2113.67 1844.99 2113.95 1845.86 2113.95 1846.75C2113.95 1847.65 2113.67 1848.52 2113.16 1849.25C2112.64 1849.98 2111.91 1850.53 2111.07 1850.83L2006.38 1911.22C2004.24 1912.39 2001.83 1912.97 1999.39 1912.92V1780.59Z" fill="black"/>
<path d="M1934.74 1839.17L1981.04 1700.03C1982 1697.69 1983.77 1695.77 1986.02 1694.62C1990.12 1692.56 1994.65 1691.48 1999.24 1691.48C2003.83 1691.48 2008.36 1692.56 2012.45 1694.62C2014.71 1695.78 2016.5 1697.69 2017.5 1700.03L2063.79 1839.17C2068.05 1851.32 2062.09 1864.32 2045.57 1873.68C2031.11 1880.99 2015.14 1884.8 1998.93 1884.8C1982.73 1884.8 1966.76 1880.99 1952.3 1873.68C1936.45 1864.32 1930.49 1851.26 1934.74 1839.17Z" fill="#02D767"/>
<path d="M1967.73 1739.95L1974.36 1720.2C1973.84 1721.95 1973.84 1723.81 1974.34 1725.57C1974.85 1727.32 1975.84 1728.89 1977.21 1730.1C1978.43 1731.35 1979.82 1732.42 1981.34 1733.26C1986.9 1736.11 1993.05 1737.59 1999.3 1737.59C2005.54 1737.59 2011.7 1736.11 2017.25 1733.26C2018.78 1732.42 2020.17 1731.35 2021.38 1730.1C2022.78 1728.9 2023.8 1727.32 2024.31 1725.55C2024.81 1723.78 2024.79 1721.9 2024.24 1720.14L2030.86 1739.95C2031.39 1741.61 2031.53 1743.37 2031.28 1745.1C2031.02 1746.82 2030.38 1748.47 2029.4 1749.91C2027.5 1752.7 2024.96 1754.99 2021.99 1756.59C2019.48 1758 2016.81 1759.1 2014.03 1759.87C2004.38 1762.61 1994.16 1762.61 1984.5 1759.87C1981.71 1759.09 1979.02 1757.99 1976.48 1756.59C1973.51 1754.99 1970.97 1752.7 1969.07 1749.91C1968.11 1748.46 1967.5 1746.81 1967.27 1745.08C1967.04 1743.36 1967.2 1741.6 1967.73 1739.95V1739.95Z" fill="#FAFAFA"/>
<path d="M1941.24 1819.6L1947.87 1799.79C1946.82 1803.02 1946.69 1806.47 1947.5 1809.76C1948.48 1813.52 1950.4 1816.97 1953.09 1819.78C1955.78 1822.61 1958.87 1825.03 1962.27 1826.95C1973.76 1832.79 1986.47 1835.84 1999.36 1835.84C2012.25 1835.84 2024.96 1832.79 2036.45 1826.95C2039.85 1825.03 2042.94 1822.61 2045.63 1819.78C2048.33 1816.99 2050.26 1813.53 2051.22 1809.76C2052.07 1806.49 2051.94 1803.05 2050.85 1799.85L2057.47 1819.6C2058.5 1822.82 2058.75 1826.23 2058.2 1829.56C2057.03 1834.03 2054.9 1838.19 2051.96 1841.76C2049.03 1845.33 2045.35 1848.21 2041.19 1850.22C2028.21 1856.78 2013.87 1860.2 1999.33 1860.2C1984.78 1860.2 1970.44 1856.78 1957.47 1850.22C1953.29 1848.23 1949.6 1845.35 1946.66 1841.78C1943.72 1838.21 1941.6 1834.04 1940.45 1829.56C1939.88 1826.23 1940.15 1822.8 1941.24 1819.6V1819.6Z" fill="#FAFAFA"/>
<path d="M1954.49 1779.8L1961.05 1760.05C1959.96 1763.31 1960.2 1766.87 1961.72 1769.96C1963.86 1774.22 1967.28 1777.71 1971.5 1779.92H1971.8C1980.33 1784.25 1989.76 1786.51 1999.33 1786.51C2008.89 1786.51 2018.32 1784.25 2026.85 1779.92V1779.92C2031.05 1777.67 2034.46 1774.19 2036.63 1769.96C2038.1 1766.84 2038.32 1763.27 2037.24 1759.99L2043.8 1779.8C2044.9 1783.03 2044.9 1786.53 2043.8 1789.76C2042.35 1793.68 2039.82 1797.11 2036.51 1799.67C2034.88 1801.08 2033.11 1802.32 2031.23 1803.37C2025.75 1806.35 2019.81 1808.4 2013.67 1809.45C2003.93 1811.33 1993.93 1811.33 1984.2 1809.45C1978.05 1808.4 1972.12 1806.35 1966.64 1803.37C1964.76 1802.32 1962.99 1801.08 1961.35 1799.67C1958.06 1797.1 1955.54 1793.67 1954.06 1789.76C1953.12 1786.48 1953.27 1782.99 1954.49 1779.8V1779.8Z" fill="#FAFAFA"/>
<path opacity="0.1" d="M1999.39 1691.28C2003.98 1691.18 2008.52 1692.27 2012.57 1694.44C2014.83 1695.6 2016.62 1697.51 2017.62 1699.85V1699.85L2063.91 1838.98C2068.17 1851.13 2062.21 1864.14 2045.69 1873.49C2031.36 1881.14 2015.32 1884.99 1999.08 1884.67H1999.45C2009.51 1882.93 2018.5 1877.32 2024.49 1869.05C2030.48 1860.77 2033.01 1850.49 2031.53 1840.38L2012.27 1701.91L1999.39 1691.28Z" fill="black"/>
<path d="M2012.57 1709.69C2014.15 1709.13 2015.52 1708.1 2016.49 1706.74C2017.46 1705.37 2017.98 1703.74 2017.98 1702.06C2017.98 1700.39 2017.46 1698.75 2016.49 1697.39C2015.52 1696.02 2014.15 1694.99 2012.57 1694.44C2008.48 1692.37 2003.95 1691.29 1999.36 1691.29C1994.77 1691.29 1990.24 1692.37 1986.14 1694.44C1984.56 1694.99 1983.2 1696.02 1982.23 1697.39C1981.26 1698.75 1980.74 1700.39 1980.74 1702.06C1980.74 1703.74 1981.26 1705.37 1982.23 1706.74C1983.2 1708.1 1984.56 1709.13 1986.14 1709.69C1990.24 1711.75 1994.77 1712.83 1999.36 1712.83C2003.95 1712.83 2008.48 1711.75 2012.57 1709.69V1709.69Z" fill="#02D767"/>
<path opacity="0.5" d="M2012.57 1709.69C2014.15 1709.13 2015.52 1708.1 2016.49 1706.74C2017.46 1705.37 2017.98 1703.74 2017.98 1702.06C2017.98 1700.39 2017.46 1698.75 2016.49 1697.39C2015.52 1696.02 2014.15 1694.99 2012.57 1694.44C2008.48 1692.37 2003.95 1691.29 1999.36 1691.29C1994.77 1691.29 1990.24 1692.37 1986.14 1694.44C1984.56 1694.99 1983.2 1696.02 1982.23 1697.39C1981.26 1698.75 1980.74 1700.39 1980.74 1702.06C1980.74 1703.74 1981.26 1705.37 1982.23 1706.74C1983.2 1708.1 1984.56 1709.13 1986.14 1709.69C1990.24 1711.75 1994.77 1712.83 1999.36 1712.83C2003.95 1712.83 2008.48 1711.75 2012.57 1709.69V1709.69Z" fill="white"/>
</svg>
